<svg xmlns="http://www.w3.org/2000/svg" xmlns:xlink="http://www.w3.org/1999/xlink" version="1.1" id="Layer_1" x="0px" y="0px" width="100px" height="100px" viewBox="0 0 100 100" enable-background="new 0 0 100 100" xml:space="preserve">
<g id="Shape_382_3_">
	<g>
		<g>
			<path d="M87.074,65.62h-1.416V18.437c0-1.456-1.186-2.639-2.644-2.639H55.637l-1.532-3.716h-1.964v-1.55h-4.209v1.692h-2.104     l-1.474,3.574H17.472c-1.458,0-2.644,1.183-2.644,2.639V65.62h-1.903v2.553h9.826l-8.076,19.584l2.672,1.712l4.061-1.712     l2.668-6.623h23.854v4.086h4.209v-4.086h23.77l2.612,6.48l3.919,1.504l2.612-1.995l-7.815-18.95h9.836V65.62z M52.141,12.88     h1.431l1.204,2.918h-2.635V12.88z M46.36,13.022h1.571v2.776h-2.716L46.36,13.022z M17.768,88.425l-0.343,0.145l-1.758-1.125     l7.947-19.271h2.304L17.768,88.425z M47.931,80.335H24.397l0.663-1.645h22.871V80.335z M47.931,77.893h-22.55l3.913-9.72h18.637     V77.893z M52.141,80.335V78.69h22.788l0.663,1.645H52.141z M52.141,77.893v-9.72h18.553l3.913,9.72H52.141z M84.083,86.86     l-1.772,1.354l-0.268-0.104h-0.002l-7.906-19.938h2.242L84.083,86.86z M84.86,65.62H15.626V18.437     c0-1.015,0.829-1.841,1.846-1.841h65.542c1.017,0,1.846,0.826,1.846,1.841V65.62z"/>
		</g>
	</g>
</g>
</svg>