<svg xmlns="http://www.w3.org/2000/svg" xmlns:xlink="http://www.w3.org/1999/xlink" version="1.1" id="Layer_1" x="0px" y="0px" width="100px" height="100px" viewBox="0 0 100 100" enable-background="new 0 0 100 100" xml:space="preserve">
<path d="M96.55,53.792c-1.332-2.938-6.375-4.227-9.388-4.996c-0.306-0.079-0.584-0.149-0.825-0.214  c-0.965-0.26-1.93-0.513-2.893-0.767c-1.577-0.415-3.173-0.834-4.771-1.283c-0.167-0.139-0.378-0.194-0.58-0.166  c-2.408-0.687-4.813-1.446-7.156-2.354c0.07-0.333,0.019-0.691-0.157-1.013c-0.192-0.355-0.518-0.643-0.914-0.807  c-0.237-0.099-0.482-0.149-0.731-0.149c-0.561,0-1.057,0.263-1.326,0.686c-0.005-0.002-0.009-0.005-0.013-0.007  c-0.901-0.391-1.819-0.81-2.734-1.24c0.142-0.364,0.146-0.776,0.008-1.156c-0.152-0.418-0.458-0.765-0.862-0.977  c-0.264-0.138-0.558-0.211-0.85-0.211c-0.61,0-1.158,0.312-1.45,0.818c-0.96-0.477-1.979-0.991-3.26-1.644  c0.274-0.805-0.069-1.715-0.846-2.122c-0.251-0.132-0.532-0.202-0.815-0.202c-0.576,0-1.107,0.278-1.435,0.739  c-0.923-0.472-1.847-0.943-2.772-1.411c0.289-0.811-0.054-1.734-0.837-2.146c-0.252-0.132-0.533-0.202-0.815-0.202  c-0.593,0-1.134,0.294-1.459,0.778c-0.562-0.283-1.129-0.562-1.695-0.841c-1.439-0.708-2.929-1.441-4.326-2.244  c-0.913-0.524-1.934-0.641-2.801-0.319c-0.794,0.294-1.401,0.939-1.709,1.815c-0.294,0.833-0.215,1.546,0.048,2.143  c-1.83,0.115-3.691,1.024-4.995,2.522c-0.431,0.496-0.815,1.002-1.187,1.492c-0.826,1.088-1.606,2.116-2.773,2.855  c-3.406,2.158-7.705,2.141-10.453-0.043c-1.287-1.023-2.229-2.382-3.147-4.543l-0.033-0.077c-0.304-0.721-0.723-1.708-1.636-2.123  c-0.501-0.229-1.796-0.552-2.959,1.368c-1.333,2.2-1.958,4.893-2.509,7.27l-0.065,0.28c-0.589,2.532-1.175,5.26-1.475,8.058  c-0.226,2.099-0.364,5.189,1.034,7.783c1.114,2.068,3.086,3.093,5.013,3.814c0.044,0.095,0.107,0.182,0.193,0.255  c0.619,0.527,2.207,2.234,2.12,3.782c-0.022,0.404,0.277,0.754,0.68,0.793l3.894,0.379c0.025,0.003,0.049,0.004,0.073,0.004  c0.352,0,0.662-0.245,0.737-0.596c0.005-0.025,0.523-2.333,2.239-2.914c0.305,0.004,0.609,0.005,0.914,0.004  c0.796,0.539,2.351,1.859,2.498,3.264c0.041,0.386,0.366,0.675,0.749,0.675c0.017,0,0.033-0.001,0.049-0.001l3.905-0.249  c0.381-0.024,0.683-0.331,0.705-0.712c0-0.008,0.05-0.815,0.404-1.659c0.398-0.945,1.01-1.536,1.814-1.768  c4.121-0.164,8.979-0.178,13.852,0.4c1.706,0.202,3.431,0.516,5.097,0.821c0.927,0.168,1.88,0.339,2.832,0.495  c0.014,0.01,0.024,0.023,0.038,0.032c0.668,0.464,2.416,2.005,2.481,3.557c0.017,0.402,0.349,0.721,0.752,0.721  c0.001,0,0.001,0,0.002,0l3.912-0.005c0.384,0,0.705-0.288,0.748-0.669c0.004-0.029,0.367-2.998,2.628-3.319  c0.109-0.016,0.21-0.057,0.298-0.112c0.863,0.546,2.299,1.7,2.515,3.001c0.061,0.367,0.379,0.63,0.742,0.631  c0.031-0.001,0.063-0.002,0.095-0.007l3.883-0.482c0.378-0.047,0.662-0.371,0.66-0.752c0-0.009,0.001-0.817,0.305-1.681  c0.334-0.947,0.891-1.567,1.653-1.855c0.331-0.05,0.662-0.102,0.994-0.154c0.042,0.026,0.087,0.047,0.136,0.066  c0.762,0.283,2.839,1.341,3.289,2.825c0.098,0.324,0.396,0.535,0.72,0.536c0.062-0.001,0.127-0.008,0.19-0.024l3.787-0.979  c0.369-0.096,0.609-0.454,0.559-0.833c-0.001-0.007-0.105-0.81,0.085-1.704c0.229-1.085,0.779-1.814,1.631-2.167  c0.134-0.055,0.24-0.146,0.32-0.255c0.409-0.143,0.82-0.294,1.229-0.455c1.954-0.769,4.695-2.073,5.936-4.518  C96.977,56.078,97.046,54.888,96.55,53.792z M85.945,50.037c0.248,0.067,0.531,0.139,0.844,0.219c2.57,0.657,7.354,1.88,8.388,4.159  c0.112,0.25,0.176,0.508,0.187,0.777c-0.68,1.75-5.986,3.219-9.195,3.737c-0.023,0.004-0.048,0.009-0.071,0.016  C78.335,60.984,72.782,62,68.528,62.399l-6.199-3.769c10.682-0.548,16.786-2.596,18.149-6.1c0.587-1.508,0.194-2.951-0.367-4.04  c0.987,0.266,1.973,0.525,2.949,0.783C84.021,49.525,84.982,49.778,85.945,50.037z M36.447,59.005  c-0.726-0.273-1.437-0.526-2.131-0.759l11.307-19.696c0.182,0.078,0.363,0.156,0.544,0.233c0.289,0.124,0.578,0.248,0.865,0.373  c-0.008,0.64,0.334,1.263,0.939,1.581c0.251,0.132,0.533,0.202,0.815,0.202c0.474,0,0.914-0.189,1.238-0.512  c0.003,0.001,0.004,0.002,0.006,0.003c0.494,0.205,0.997,0.41,1.502,0.616L40.702,59.792c-0.004,0.006-0.005,0.012-0.009,0.018  C39.455,59.692,38.132,59.468,36.447,59.005z M52.097,36.663c0.915,0.461,1.828,0.927,2.739,1.394l-1.167,2.225  c-0.176-0.07-0.35-0.141-0.524-0.211c-0.046-0.047-0.096-0.091-0.156-0.126c-0.122-0.071-0.258-0.1-0.39-0.093  c-0.604-0.245-1.202-0.489-1.791-0.732L52.097,36.663z M57.968,39.659c1.268,0.647,2.281,1.158,3.234,1.631l-0.831,1.585  c-1.164-0.437-2.309-0.873-3.409-1.298L57.968,39.659z M56.207,43.015l0.05-0.096c0.004,0.002,0.007,0.004,0.011,0.005  c1.099,0.426,2.244,0.863,3.407,1.3c-0.306,0.784,0.053,1.71,0.855,2.131c0.263,0.138,0.557,0.211,0.849,0.211  c0.633,0,1.201-0.333,1.483-0.872l0.127-0.241c1.06,0.388,2.12,0.772,3.182,1.154l-0.024,0.061  c-0.322,0.772,0.126,1.696,0.998,2.059c0.236,0.099,0.482,0.149,0.731,0.149c0.646,0,1.208-0.35,1.435-0.892l0.093-0.224  c0.523,0.185,1.045,0.37,1.568,0.553c0.082,0.029,0.166,0.043,0.25,0.043c0.311,0,0.602-0.193,0.711-0.504  c0.139-0.393-0.068-0.823-0.461-0.961c-0.496-0.174-0.992-0.35-1.488-0.525l0.397-0.954c2.468,0.957,4.988,1.748,7.506,2.461  c0.539,0.622,1.866,2.395,1.191,4.115c-1.599,4.078-12.494,5.032-19.063,5.232l-11.981-7.286l4.828-8.356  c0.042,0.017,0.083,0.033,0.125,0.05c-0.274,0.806,0.068,1.716,0.846,2.124c0.251,0.132,0.533,0.202,0.815,0.202  C55.304,43.958,55.901,43.597,56.207,43.015z M47.324,51.165l11.742,7.14c0.12,0.252,0.378,0.427,0.674,0.427  c0.008,0,0.015,0,0.021,0c0.002,0,0.004,0,0.006-0.001l6.313,3.84c-4.837,0.21-7.831-0.462-10.914-1.155  c-1.642-0.369-3.338-0.75-5.34-1.005c-2.673-0.343-4.55-0.398-6.206-0.448c-0.465-0.014-0.912-0.027-1.354-0.046L47.324,51.165z   M69.133,43.462c0.061,0,0.126,0.014,0.188,0.04c0.162,0.067,0.23,0.184,0.234,0.206l-1.546,3.72  c-0.007,0.006-0.05,0.032-0.133,0.031c-0.061,0-0.125-0.014-0.188-0.04c-0.162-0.067-0.23-0.184-0.234-0.206l1.546-3.72  C69.008,43.487,69.052,43.462,69.133,43.462z M67.211,44.111l-0.46,1.104c-1.02-0.366-2.038-0.736-3.055-1.108l0.674-1.283  c0.945,0.446,1.895,0.878,2.824,1.282C67.2,44.109,67.206,44.109,67.211,44.111z M63.355,40.647c0.051,0,0.103,0.013,0.15,0.039  c0.07,0.037,0.124,0.094,0.147,0.157c0.01,0.028,0.018,0.068,0,0.102l-2.125,4.05c-0.025,0.048-0.096,0.065-0.147,0.065  c-0.051,0-0.102-0.014-0.15-0.039c-0.125-0.066-0.183-0.194-0.147-0.26l2.126-4.05C63.233,40.664,63.304,40.647,63.355,40.647z   M56.985,37.498c0.041,0,0.079,0.01,0.116,0.029c0.122,0.064,0.17,0.216,0.105,0.339l-2.335,4.449  c-0.053,0.099-0.149,0.135-0.224,0.134c-0.04,0-0.079-0.009-0.116-0.029c-0.123-0.064-0.17-0.216-0.105-0.339l2.335-4.449  C56.814,37.533,56.912,37.498,56.985,37.498z M51.125,34.479c0.041,0,0.079,0.01,0.116,0.029c0.123,0.065,0.17,0.217,0.105,0.339  l-2.335,4.449c-0.052,0.1-0.149,0.135-0.224,0.135c-0.04,0-0.079-0.01-0.116-0.029c-0.122-0.064-0.17-0.217-0.105-0.339l2.335-4.45  C50.954,34.514,51.052,34.479,51.125,34.479z M40.559,32.661c0.161-0.459,0.435-0.763,0.812-0.903  c0.446-0.166,1.003-0.088,1.525,0.212c1.44,0.827,2.951,1.57,4.411,2.29c0.552,0.271,1.102,0.543,1.648,0.818l-1.396,2.662  c-0.266-0.114-0.531-0.229-0.798-0.343c-1.545-0.662-3.143-1.346-4.571-2.198C40.355,34.105,40.321,33.333,40.559,32.661z   M9.452,51.524c0.292-2.717,0.867-5.392,1.444-7.878l0.065-0.281c0.551-2.377,1.122-4.836,2.33-6.83  c0.222-0.367,0.654-0.955,1.047-0.776c0.378,0.171,0.664,0.846,0.872,1.337l0.033,0.079c0.68,1.6,1.703,3.629,3.597,5.134  c3.242,2.577,8.258,2.632,12.198,0.136c1.396-0.884,2.295-2.07,3.166-3.217c0.356-0.47,0.726-0.956,1.124-1.415  c1.332-1.531,3.46-2.306,5.204-1.908c0.348,0.266,0.675,0.462,0.886,0.587c0.933,0.556,1.914,1.037,2.901,1.482L32.937,57.803  c-0.315-0.097-0.63-0.191-0.939-0.281c-1.426-0.538-3.056-1.198-4.954-2.013c-10.636-4.567-15.716-3.13-17.719-1.977  C9.333,52.905,9.375,52.238,9.452,51.524z M10.077,57.939c-0.339-0.763-0.562-1.626-0.673-2.609  c0.001-0.001,0.001-0.001,0.002-0.002c0.033-0.04,3.396-3.596,14.655,0.606C16.329,55.13,11.76,57.03,10.077,57.939z M21.057,65.25  c-0.304,0.495-0.51,0.985-0.641,1.359l-2.627-0.257c-0.127-0.947-0.579-1.825-1.072-2.539c1.594,0.399,3.211,0.628,4.838,0.747  C21.377,64.771,21.211,65,21.057,65.25z M31.751,65.447c-0.222,0.538-0.346,1.055-0.415,1.443l-2.634,0.168  c-0.292-0.965-0.93-1.8-1.565-2.439c1.282-0.047,2.559-0.122,3.827-0.196l0.954-0.056c0.144-0.008,0.293-0.016,0.44-0.025  C32.124,64.669,31.92,65.037,31.751,65.447z M63.823,67.316c-0.254,0.523-0.411,1.031-0.505,1.415l-2.64,0.004  c-0.226-0.957-0.787-1.81-1.364-2.479c0.935,0.074,1.848,0.107,2.728,0.107c0.839,0,1.646-0.027,2.419-0.068  C64.223,66.595,64.009,66.935,63.823,67.316z M74.375,66.394c-0.188,0.55-0.281,1.074-0.328,1.467l-2.619,0.325  c-0.34-0.919-0.997-1.694-1.65-2.289c1.611-0.145,3.316-0.321,5.074-0.543C74.665,65.668,74.505,66.015,74.375,66.394z   M85.741,64.46c-0.115,0.569-0.141,1.101-0.136,1.496l-2.556,0.661c-0.502-0.955-1.363-1.689-2.151-2.205  c0.572-0.108,1.145-0.221,1.716-0.341c0.982-0.208,2.205-0.482,3.533-0.84C85.972,63.604,85.833,64.012,85.741,64.46z   M89.854,60.443c-2.077,0.817-4.477,1.502-7.552,2.152c-1.552,0.329-3.114,0.607-4.659,0.846c-0.105-0.018-0.215-0.017-0.325,0.013  c-0.081,0.022-0.159,0.046-0.238,0.072c-3.264,0.486-6.429,0.798-9.223,1.021c-0.222-0.087-0.462-0.063-0.656,0.052  c-0.504,0.038-0.996,0.075-1.47,0.108c-2.412,0.172-5.285,0.283-8.307-0.19c-1.077-0.169-2.173-0.369-3.231-0.563  c-1.689-0.308-3.437-0.626-5.189-0.834c-4.854-0.575-9.675-0.574-13.793-0.419c-0.11-0.03-0.227-0.038-0.345-0.013  c-0.044,0.009-0.085,0.021-0.128,0.031c-1.019,0.041-1.992,0.092-2.907,0.144l-0.957,0.057c-1.882,0.11-3.787,0.22-5.687,0.237  c-0.061-0.012-0.123-0.019-0.184-0.015c-0.125-0.078-0.273-0.121-0.43-0.115c-0.289,0.012-0.568,0.054-0.838,0.123  c-2.841-0.056-5.653-0.376-8.333-1.289c-1.699-0.578-3.422-1.263-4.54-2.619c2.012-1.036,8.79-3.683,20.716-0.266  c1.742,0.655,3.188,1.131,4.44,1.479c0.126,0.047,0.251,0.092,0.377,0.141c0.089,0.035,0.181,0.051,0.271,0.05  c0.02,0.001,0.038-0.002,0.059-0.003c2.776,0.704,4.61,0.759,6.851,0.826c1.621,0.049,3.46,0.104,6.06,0.437  c1.932,0.247,3.594,0.62,5.201,0.982c2.78,0.625,5.491,1.233,9.444,1.236c4.788,0.002,11.401-0.884,22.164-3.71  c0.312-0.053,2.377-0.407,4.586-1.083c0.947-0.29,1.773-0.593,2.488-0.911C92.623,59.162,91.408,59.833,89.854,60.443z"/>
</svg>