<svg xmlns="http://www.w3.org/2000/svg" xmlns:xlink="http://www.w3.org/1999/xlink" version="1.1" id="Your_Icon" x="0px" y="0px" width="100px" height="100px" viewBox="0 0 100 100" enable-background="new 0 0 100 100" xml:space="preserve">
<path d="M0,16.644v66.713h100V16.644H0z M95.845,59.076c-0.234-0.003-0.478-0.005-0.729-0.006c-1.158,0.004-3.117,0.009-6.331,0.048  V40.855h7.061V59.076z M95.845,37.113H85.042V62.91l1.896-0.027c4.254-0.059,6.64-0.068,7.954-0.072l0.016,0.211l0.937-0.071v6.565  c-4.148-0.036-13.753-0.099-22.393-0.004V30.465h22.393V37.113z M47.888,58.628c-1.645-0.354-3.155-1.166-4.373-2.384  c-3.442-3.444-3.442-9.046,0-12.49c1.218-1.218,2.729-2.03,4.373-2.383V58.628z M51.63,41.371c1.645,0.353,3.156,1.165,4.374,2.383  c3.442,3.444,3.442,9.046,0,12.49c-1.218,1.218-2.729,2.03-4.374,2.384V41.371z M14.221,62.884V37.113H4.156v-6.648h21.909v39.07  H4.156v-6.651H14.221z M4.156,59.143V40.855h6.322v18.287H4.156z M4.156,73.277h25.651V26.723H4.156V20.8h43.731v16.78  c-2.646,0.393-5.091,1.603-7.019,3.529c-4.901,4.901-4.901,12.878,0,17.78c1.928,1.927,4.373,3.136,7.019,3.528V79.2H4.156V73.277z   M51.63,79.2V62.418c2.646-0.393,5.092-1.602,7.019-3.528c4.902-4.902,4.902-12.879,0-17.78c-1.927-1.927-4.372-3.137-7.019-3.529  V20.8h44.215v5.923H69.71v46.58l1.897-0.026c9.074-0.127,19.819-0.058,24.237-0.02V79.2H51.63z"/>
</svg>