<svg xmlns="http://www.w3.org/2000/svg" xmlns:xlink="http://www.w3.org/1999/xlink" version="1.1" id="Capa_1" x="0px" y="0px" width="100px" height="100px" viewBox="0 0 100 100" enable-background="new 0 0 100 100" xml:space="preserve">
<path d="M98.952,26.29c-0.09-0.063-0.194-0.083-0.301-0.083v-0.016H1.349v0.016c-0.106,0-0.212,0.021-0.301,0.083  c-0.137,0.099-0.218,0.256-0.218,0.423v46.578c0,0.192,0.105,0.368,0.276,0.458c0.076,0.04,0.158,0.06,0.242,0.06  c0.103,0,0.204-0.03,0.293-0.091l10.543-7.23c0.102-0.068,0.159-0.176,0.191-0.292c1.733,0.078,22.552,0.999,40.557,0.999  c18.709,0,34.508-0.994,34.665-1.005l-0.008-0.129l-0.009-0.13c-0.039,0.003-1.055,0.066-2.849,0.161  c-0.116-1.76-0.234-3.758-0.351-5.51c1.827-0.121,1.759-0.131,3.208-0.249v5.728c0,0.171,0.084,0.331,0.225,0.427l10.543,7.23  c0.088,0.061,0.19,0.091,0.294,0.091c0.083,0,0.166-0.02,0.242-0.06c0.17-0.09,0.276-0.266,0.276-0.458V26.713  C99.17,26.546,99.089,26.389,98.952,26.29z M52.835,36.949c0.009,1.565,0.018,3.132,0.027,4.697c-1.908,0.012-3.816,0.012-5.724,0  c0.01-1.565,0.018-3.132,0.027-4.697C49.056,36.961,50.945,36.961,52.835,36.949z M47.167,36.691  c0.01-1.565,0.019-3.131,0.027-4.697c1.871,0.011,3.741,0.011,5.611,0c0.01,1.566,0.018,3.132,0.026,4.697  C50.944,36.703,49.056,36.703,47.167,36.691z M52.863,41.904c0.009,1.565,0.018,3.131,0.027,4.697c-1.927,0.011-3.854,0.011-5.78,0  c0.009-1.566,0.018-3.132,0.027-4.697C49.046,41.915,50.955,41.915,52.863,41.904z M52.892,46.859  c0.009,1.565,0.018,3.131,0.027,4.696c-1.946,0.012-3.892,0.012-5.837,0c0.009-1.565,0.018-3.131,0.026-4.696  C49.036,46.87,50.964,46.87,52.892,46.859z M52.921,51.813c0.009,1.567,0.017,3.133,0.026,4.698c-1.965,0.011-3.93,0.011-5.895,0  c0.009-1.565,0.019-3.131,0.027-4.698C49.027,51.825,50.974,51.825,52.921,51.813z M52.949,56.769  c0.009,1.565,0.018,3.132,0.027,4.697c-1.984,0.011-3.968,0.011-5.952,0c0.009-1.565,0.019-3.132,0.027-4.697  C49.018,56.78,50.983,56.78,52.949,56.769z M35.584,31.508c-0.081-0.256-0.161-0.512-0.241-0.768  c1.896,0.029,3.794,0.054,5.691,0.072c0.054,0.28,0.108,0.561,0.162,0.84c0.086,0.001,0.172,0.002,0.258,0.003  c-0.052-0.28-0.104-0.56-0.157-0.84c1.897,0.017,3.794,0.029,5.691,0.035c0.019,0.28,0.037,0.56,0.055,0.841  c0.086,0,0.173,0,0.259,0c-0.017-0.28-0.034-0.56-0.05-0.84c1.897,0.005,3.794,0.005,5.692-0.001  c-0.019,0.28-0.036,0.561-0.054,0.841c0.087,0,0.173,0,0.259-0.001c0.02-0.281,0.038-0.561,0.058-0.84  c1.897-0.007,3.795-0.02,5.691-0.037c-0.054,0.28-0.107,0.56-0.161,0.84c0.086-0.001,0.172-0.001,0.257-0.003  c0.057-0.279,0.111-0.56,0.167-0.841c1.896-0.018,3.794-0.042,5.69-0.072c-0.081,0.255-0.162,0.51-0.244,0.765  C54.935,31.793,45.257,31.794,35.584,31.508z M87.59,50.158c-1.558,0.122-2.085,0.161-3.886,0.281  c-0.104-1.562-0.209-3.125-0.314-4.687c1.66-0.111,2.728-0.188,4.2-0.301V50.158z M88.627,50.063  c0.607,0.177,1.217,0.343,1.831,0.47c-0.042,1.483-0.1,3.023-0.166,4.55c-0.559-0.125-1.112-0.288-1.665-0.456V50.063z   M88.627,49.803v-4.563c0.637,0.178,1.276,0.34,1.921,0.465c-0.016,1.337-0.035,2.639-0.064,3.845  c-0.006,0.238-0.012,0.48-0.019,0.724C89.848,50.147,89.236,49.98,88.627,49.803z M77.024,30.462  c1.896-0.055,3.791-0.116,5.688-0.183c-0.123,0.176-0.203,0.257-0.293,0.36c-1.9,0.127-3.801,0.25-5.701,0.355  C76.819,30.817,76.922,30.64,77.024,30.462z M76.453,31.008c-1.895,0.104-3.79,0.198-5.687,0.279  c0.102-0.224,0.202-0.446,0.303-0.671c1.897-0.043,3.794-0.092,5.69-0.146C76.658,30.649,76.556,30.828,76.453,31.008z   M88.627,30.773c0.626,0.147,1.256,0.278,1.884,0.387c0.014,1.101,0.031,2.71,0.043,4.592c-0.645-0.114-1.287-0.255-1.927-0.415  V30.773z M87.62,30.281c-1.644,0.128-3.288,0.229-4.933,0.34c0.088-0.099,0.168-0.18,0.288-0.352  c1.569-0.056,3.138-0.118,4.706-0.182C87.645,30.145,87.634,30.214,87.62,30.281z M76.556,31.275  c1.862-0.102,3.724-0.214,5.585-0.338c0.104,1.563,0.206,3.125,0.311,4.688c-1.886,0.125-3.771,0.239-5.656,0.343  c-0.086-1.555-0.171-3.109-0.256-4.662C76.544,31.295,76.551,31.286,76.556,31.275z M82.399,30.921  c1.73-0.115,3.461-0.243,5.19-0.377v4.709c-1.626,0.125-3.251,0.246-4.877,0.355C82.608,34.046,82.504,32.483,82.399,30.921z   M87.59,35.512v4.704c-1.579,0.124-2.853,0.224-4.547,0.336c-0.104-1.562-0.209-3.125-0.313-4.687  C84.352,35.756,85.971,35.636,87.59,35.512z M87.59,40.474v4.721c-1.481,0.113-2.55,0.19-4.217,0.302  c-0.104-1.563-0.209-3.125-0.313-4.687C84.748,40.695,86.02,40.598,87.59,40.474z M88.627,44.98v-4.563  c0.645,0.172,1.292,0.324,1.943,0.445c0,1.516-0.007,3.069-0.021,4.58C89.904,45.318,89.265,45.157,88.627,44.98z M88.627,40.158  v-4.563c0.641,0.161,1.284,0.303,1.929,0.418c0.008,1.417,0.015,2.979,0.016,4.588C89.919,40.481,89.271,40.329,88.627,40.158z   M90.509,30.899c-0.487-0.085-0.974-0.191-1.46-0.3l1.449-0.505C90.501,30.308,90.505,30.567,90.509,30.899z M89.497,29.347  c0.162-0.198,0.325-0.396,0.488-0.595c0.467-0.019,0.934-0.042,1.4-0.063L89.497,29.347z M89.136,29.473l-0.645,0.224  c-1.752,0.071-3.504,0.142-5.256,0.202c0.213-0.303,0.424-0.605,0.637-0.909c1.947-0.069,3.895-0.144,5.842-0.225  C89.521,28.999,89.329,29.236,89.136,29.473z M82.97,29.909c-1.911,0.066-3.822,0.128-5.732,0.184  c0.173-0.302,0.347-0.604,0.521-0.905c1.947-0.057,3.895-0.119,5.842-0.188C83.39,29.303,83.181,29.604,82.97,29.909z   M76.971,30.102c-1.912,0.055-3.824,0.103-5.735,0.147c0.135-0.302,0.271-0.602,0.406-0.903c1.949-0.045,3.897-0.094,5.846-0.15  C77.315,29.497,77.143,29.8,76.971,30.102z M70.97,30.255c-1.912,0.043-3.823,0.079-5.735,0.11c0.098-0.301,0.196-0.601,0.293-0.9  c1.947-0.032,3.896-0.068,5.843-0.113C71.237,29.653,71.104,29.953,70.97,30.255z M64.97,30.37c-1.912,0.03-3.825,0.055-5.737,0.073  c0.059-0.3,0.117-0.599,0.178-0.898c1.948-0.019,3.897-0.044,5.846-0.076C65.161,29.769,65.064,30.069,64.97,30.37z M65.116,30.733  c1.896-0.032,3.793-0.068,5.689-0.11c-0.102,0.225-0.202,0.451-0.302,0.677c-1.878,0.079-3.756,0.137-5.635,0.194  C64.951,31.24,65.034,30.986,65.116,30.733z M70.412,31.573c0.066,1.563,0.132,3.13,0.198,4.693  c-1.888,0.08-3.774,0.147-5.662,0.205c-0.048-1.564-0.097-3.13-0.144-4.695C66.674,31.72,68.543,31.651,70.412,31.573z   M70.62,36.523c0.065,1.565,0.132,3.129,0.197,4.693c-1.905,0.08-3.813,0.149-5.719,0.208c-0.047-1.565-0.096-3.13-0.144-4.694  C66.844,36.671,68.732,36.604,70.62,36.523z M70.672,31.562c1.869-0.079,3.737-0.169,5.606-0.271c0,0.007,0.001,0.015,0.001,0.021  c-0.001,0.002-0.001,0.003-0.002,0.004c0.001,0,0.002,0,0.002,0c0.085,1.556,0.168,3.109,0.253,4.665  c-1.887,0.103-3.773,0.193-5.661,0.274C70.805,34.69,70.738,33.127,70.672,31.562z M76.546,36.24  c0.085,1.563,0.17,3.126,0.255,4.689c-1.906,0.104-3.812,0.195-5.719,0.276c-0.065-1.563-0.133-3.129-0.199-4.692  C72.771,36.433,74.659,36.341,76.546,36.24z M76.813,41.186c0.085,1.563,0.17,3.128,0.255,4.691  c-1.925,0.104-3.85,0.197-5.775,0.279c-0.066-1.563-0.133-3.129-0.2-4.693C73.001,41.383,74.908,41.289,76.813,41.186z   M77.064,40.915c-0.086-1.563-0.171-3.127-0.256-4.69c1.887-0.103,3.773-0.218,5.659-0.342c0.104,1.563,0.207,3.124,0.311,4.688  C80.875,40.695,78.97,40.812,77.064,40.915z M82.796,40.826c0.103,1.563,0.207,3.124,0.311,4.688  c-1.923,0.127-3.847,0.243-5.771,0.349c-0.085-1.563-0.171-3.127-0.256-4.69C78.985,41.068,80.891,40.953,82.796,40.826z   M83.124,45.771c0.103,1.563,0.206,3.125,0.31,4.688c-1.941,0.129-3.885,0.246-5.828,0.353c-0.085-1.563-0.171-3.127-0.256-4.69  C79.274,46.015,81.199,45.897,83.124,45.771z M90.281,55.339c-0.069,1.562-0.146,3.099-0.222,4.531  c-0.482-0.116-0.957-0.268-1.433-0.42v-4.565C89.176,55.054,89.726,55.215,90.281,55.339z M90.3,60.188  c0.729,0.166,1.463,0.293,2.198,0.38c-0.089,1.764-0.178,3.392-0.256,4.755c-0.742-0.099-1.482-0.239-2.217-0.425  C90.106,63.62,90.201,61.995,90.3,60.188z M90.313,59.93c0.078-1.434,0.154-2.972,0.224-4.535c0.724,0.151,1.451,0.265,2.18,0.341  c-0.063,1.563-0.134,3.11-0.207,4.571C91.775,60.222,91.043,60.097,90.313,59.93z M90.549,55.136  c0.066-1.525,0.124-3.067,0.166-4.552c0.72,0.139,1.443,0.242,2.167,0.313c-0.038,1.489-0.093,3.039-0.154,4.578  C91.999,55.399,91.271,55.286,90.549,55.136z M90.723,50.324c0.006-0.248,0.013-0.494,0.019-0.737  c0.029-1.203,0.049-2.501,0.063-3.835c0.718,0.131,1.44,0.23,2.161,0.296c-0.013,1.364-0.032,2.69-0.061,3.924  c-0.005,0.22-0.011,0.441-0.017,0.664C92.165,50.566,91.442,50.463,90.723,50.324z M90.769,31.203  c0.723,0.119,1.446,0.21,2.171,0.274c0.014,1.232,0.025,2.819,0.035,4.598c-0.722-0.064-1.443-0.157-2.164-0.277  C90.8,33.919,90.782,32.309,90.769,31.203z M90.807,45.492c0.014-1.513,0.021-3.066,0.021-4.584  c0.719,0.126,1.439,0.221,2.161,0.286c-0.001,1.524-0.008,3.08-0.021,4.592C92.247,45.721,91.524,45.623,90.807,45.492z   M90.828,40.647c0.001-1.609-0.007-3.17-0.016-4.589c0.721,0.122,1.442,0.214,2.165,0.278c0.008,1.44,0.012,3,0.012,4.596  C92.268,40.868,91.546,40.772,90.828,40.647z M92.936,31.215c-0.724-0.063-1.447-0.154-2.169-0.273  c-0.005-0.396-0.01-0.709-0.013-0.935l2.158-0.75C92.917,29.665,92.927,30.337,92.936,31.215z M93.146,50.92  c0.932,0.078,1.865,0.098,2.793,0.061c-0.032,1.482-0.076,3.033-0.131,4.591c-0.936,0.039-1.877,0.016-2.818-0.07  C93.052,53.96,93.105,52.41,93.146,50.92z M93.152,50.658c0.006-0.227,0.011-0.451,0.017-0.675c0.027-1.23,0.046-2.555,0.06-3.913  c0.928,0.073,1.854,0.094,2.777,0.06c-0.012,1.592-0.031,3.144-0.062,4.581c0,0.002,0,0.005,0,0.007  C95.018,50.757,94.084,50.737,93.152,50.658z M93.201,31.5c0.927,0.073,1.853,0.104,2.776,0.089  c0.012,1.288,0.024,2.856,0.033,4.585c-0.921,0.021-1.847-0.004-2.771-0.075C93.229,34.321,93.214,32.733,93.201,31.5z   M93.23,45.809c0.014-1.512,0.021-3.066,0.022-4.593c0.924,0.073,1.85,0.096,2.772,0.066c-0.001,1.521-0.005,3.069-0.018,4.586  C95.086,45.903,94.158,45.883,93.23,45.809z M93.253,40.955c0.001-1.596-0.005-3.155-0.013-4.596  c0.925,0.073,1.851,0.098,2.772,0.075c0.008,1.448,0.012,2.999,0.013,4.586C95.104,41.05,94.177,41.028,93.253,40.955z   M95.976,31.328c-0.925,0.015-1.851-0.016-2.777-0.091c-0.011-0.958-0.02-1.674-0.024-2.072l2.766-0.961  C95.945,28.578,95.959,29.703,95.976,31.328z M92.55,28.285c-0.754,0.033-1.508,0.069-2.263,0.101  c0.315-0.383,0.631-0.767,0.946-1.15h4.337L92.55,28.285z M90.014,28.397c-1.961,0.081-3.924,0.158-5.887,0.228  c0.325-0.463,0.649-0.927,0.974-1.39h5.863C90.647,27.623,90.331,28.011,90.014,28.397z M83.854,28.635  c-1.962,0.069-3.925,0.132-5.887,0.189c0.306-0.529,0.61-1.06,0.916-1.589h5.943C84.503,27.702,84.179,28.168,83.854,28.635z   M77.694,28.832c-1.962,0.056-3.926,0.106-5.89,0.151c0.264-0.584,0.526-1.166,0.789-1.748h6.013  C78.303,27.767,77.999,28.3,77.694,28.832z M71.532,28.989c-1.962,0.045-3.926,0.083-5.889,0.114  c0.203-0.623,0.404-1.245,0.605-1.868h6.064C72.053,27.82,71.792,28.405,71.532,28.989z M65.371,29.108  c-1.963,0.03-3.927,0.057-5.891,0.076c0.128-0.65,0.257-1.3,0.384-1.949h6.104C65.77,27.86,65.57,28.485,65.371,29.108z   M59.209,29.188c-1.963,0.019-3.926,0.03-5.89,0.039c0.047-0.665,0.092-1.328,0.138-1.991h6.125  C59.457,27.887,59.334,28.536,59.209,29.188z M59.141,29.548c-0.058,0.3-0.114,0.599-0.172,0.898  c-1.912,0.019-3.824,0.031-5.736,0.038c0.021-0.3,0.042-0.599,0.062-0.898C55.244,29.578,57.192,29.566,59.141,29.548z   M47.155,29.228c-0.039-0.665-0.078-1.329-0.117-1.992h6.134c-0.042,0.664-0.083,1.327-0.126,1.991  C51.083,29.232,49.119,29.232,47.155,29.228z M53.023,29.587c-0.019,0.3-0.038,0.6-0.057,0.898  c-1.912,0.006-3.824,0.006-5.736,0.001c-0.019-0.3-0.036-0.6-0.054-0.899C49.126,29.593,51.075,29.593,53.023,29.587z   M46.965,30.484c-1.912-0.007-3.824-0.019-5.736-0.036c-0.056-0.3-0.112-0.6-0.168-0.898c1.948,0.019,3.897,0.031,5.847,0.037  C46.927,29.887,46.945,30.186,46.965,30.484z M46.884,29.227c-1.964-0.007-3.927-0.019-5.891-0.037  c-0.122-0.652-0.243-1.302-0.365-1.954h6.127C46.798,27.899,46.841,28.563,46.884,29.227z M3.993,46.13  c0.922,0.034,1.851,0.014,2.778-0.06c0.014,1.358,0.032,2.683,0.06,3.913c0.005,0.224,0.011,0.448,0.017,0.675  c-0.933,0.079-1.865,0.099-2.794,0.06c0-0.002,0-0.005,0-0.007C4.025,49.273,4.006,47.722,3.993,46.13z M3.988,36.174  c0.009-1.729,0.021-3.297,0.034-4.585c0.923,0.015,1.85-0.016,2.775-0.089c-0.013,1.233-0.027,2.821-0.037,4.599  C5.835,36.17,4.91,36.195,3.988,36.174z M6.76,36.359c-0.008,1.44-0.013,3-0.012,4.596c-0.927,0.073-1.852,0.095-2.773,0.065  c0-1.587,0.005-3.138,0.011-4.586C4.908,36.457,5.834,36.433,6.76,36.359z M6.748,41.216c0.001,1.526,0.007,3.081,0.021,4.593  c-0.927,0.074-1.854,0.095-2.777,0.06c-0.012-1.517-0.017-3.064-0.017-4.586C4.896,41.312,5.821,41.289,6.748,41.216z M6.854,50.92  c0.039,1.49,0.092,3.04,0.153,4.581c-0.939,0.086-1.882,0.109-2.817,0.07c-0.055-1.558-0.098-3.108-0.13-4.591  C4.987,51.018,5.922,50.998,6.854,50.92z M6.801,31.237c-0.926,0.075-1.854,0.105-2.776,0.091c0.016-1.625,0.03-2.75,0.036-3.124  l2.766,0.961C6.82,29.563,6.811,30.279,6.801,31.237z M12.379,30.281c-0.014-0.067-0.023-0.137-0.062-0.192  c1.634,0.067,3.268,0.131,4.902,0.188c0.12,0.172,0.178,0.255,0.247,0.354C15.771,30.518,14.074,30.413,12.379,30.281z   M11.373,35.337c-0.64,0.161-1.282,0.301-1.928,0.415c0.013-1.882,0.029-3.491,0.042-4.592c0.631-0.108,1.259-0.239,1.886-0.388  V35.337z M11.373,35.596v4.563c-0.646,0.171-1.293,0.323-1.943,0.442c-0.001-1.608,0.006-3.17,0.014-4.587  C10.089,35.898,10.732,35.757,11.373,35.596z M10.951,30.6c-0.486,0.108-0.973,0.215-1.461,0.3c0.005-0.331,0.008-0.592,0.011-0.804  L10.951,30.6z M11.373,40.418v4.563c-0.638,0.177-1.278,0.338-1.923,0.463c-0.016-1.511-0.021-3.064-0.021-4.58  C10.08,40.742,10.729,40.59,11.373,40.418z M11.373,45.239v4.563c-0.61,0.178-1.223,0.345-1.84,0.47  c-0.006-0.243-0.012-0.485-0.018-0.724c-0.029-1.206-0.049-2.508-0.063-3.845C10.096,45.579,10.735,45.417,11.373,45.239z   M11.373,50.063v4.564c-0.554,0.168-1.106,0.33-1.666,0.455c-0.065-1.526-0.124-3.066-0.166-4.55  C10.156,50.405,10.765,50.239,11.373,50.063z M12.409,35.512c1.62,0.124,3.24,0.244,4.86,0.354  c-0.104,1.562-0.208,3.125-0.313,4.687c-1.773-0.117-2.894-0.222-4.548-0.355V35.512z M12.409,35.253v-4.709  c1.73,0.134,3.461,0.262,5.191,0.377c-0.104,1.563-0.209,3.125-0.313,4.688C15.661,35.5,14.035,35.378,12.409,35.253z   M17.859,30.938c1.867,0.124,3.735,0.237,5.604,0.339c-0.085,1.564-0.171,3.128-0.257,4.691c-1.887-0.103-3.772-0.218-5.657-0.343  C17.652,34.063,17.756,32.501,17.859,30.938z M17.733,30.65c-0.071-0.104-0.128-0.188-0.25-0.365  c1.896,0.067,3.792,0.128,5.688,0.183c0.103,0.179,0.204,0.358,0.307,0.537C21.563,30.9,19.648,30.777,17.733,30.65z M23.436,30.476  c1.896,0.055,3.793,0.104,5.689,0.146c0.102,0.225,0.201,0.449,0.302,0.675c-1.896-0.081-3.789-0.177-5.685-0.279  C23.641,30.837,23.538,30.656,23.436,30.476z M28.829,29.355c1.948,0.045,3.896,0.081,5.845,0.112  c0.097,0.301,0.192,0.601,0.288,0.9c-1.912-0.03-3.824-0.066-5.735-0.109C29.094,29.958,28.961,29.657,28.829,29.355z   M28.961,30.253c-1.911-0.042-3.823-0.091-5.734-0.146c-0.171-0.302-0.343-0.604-0.513-0.906c1.947,0.056,3.896,0.106,5.844,0.148  C28.692,29.651,28.827,29.952,28.961,30.253z M22.961,30.099c-1.912-0.056-3.822-0.116-5.733-0.184  c-0.21-0.302-0.419-0.605-0.628-0.908c1.947,0.067,3.896,0.13,5.843,0.187C22.615,29.495,22.788,29.797,22.961,30.099z   M16.962,29.906c-1.817-0.064-3.635-0.136-5.452-0.209l-0.379-0.133c-0.216-0.264-0.43-0.528-0.645-0.792  c1.947,0.081,3.895,0.156,5.843,0.225C16.54,29.3,16.751,29.603,16.962,29.906z M10.771,29.439L8.613,28.69  c0.534,0.023,1.068,0.049,1.603,0.071C10.401,28.988,10.586,29.214,10.771,29.439z M9.245,30.007  c-0.003,0.226-0.007,0.54-0.012,0.935c-0.722,0.119-1.445,0.21-2.17,0.273c0.01-0.878,0.018-1.55,0.023-1.958L9.245,30.007z   M7.024,36.075c0.01-1.778,0.023-3.365,0.036-4.598c0.725-0.064,1.447-0.155,2.17-0.274c-0.015,1.105-0.03,2.716-0.042,4.595  C8.469,35.918,7.747,36.011,7.024,36.075z M9.187,36.059c-0.01,1.419-0.016,2.979-0.015,4.589c-0.719,0.125-1.439,0.221-2.161,0.285  c-0.001-1.596,0.003-3.155,0.012-4.596C7.745,36.272,8.467,36.181,9.187,36.059z M9.172,40.908c0,1.518,0.007,3.071,0.021,4.584  c-0.718,0.131-1.439,0.229-2.161,0.294c-0.014-1.512-0.02-3.067-0.021-4.592C7.732,41.129,8.453,41.034,9.172,40.908z M9.196,45.752  c0.013,1.334,0.033,2.632,0.062,3.835c0.006,0.243,0.012,0.489,0.019,0.737c-0.719,0.139-1.442,0.242-2.165,0.312  c-0.007-0.223-0.012-0.444-0.017-0.664c-0.027-1.233-0.047-2.56-0.061-3.924C7.756,45.982,8.478,45.884,9.196,45.752z M9.284,50.584  c0.043,1.484,0.1,3.026,0.166,4.552c-0.724,0.15-1.45,0.264-2.179,0.339c-0.061-1.539-0.115-3.089-0.154-4.578  C7.841,50.826,8.564,50.723,9.284,50.584z M9.462,55.395c0.069,1.563,0.146,3.102,0.223,4.535c-0.728,0.167-1.461,0.292-2.195,0.377  c-0.073-1.461-0.144-3.008-0.207-4.571C8.011,55.659,8.738,55.546,9.462,55.395z M9.7,60.188c0.098,1.807,0.194,3.432,0.274,4.71  C9.24,65.084,8.5,65.225,7.758,65.323c-0.079-1.363-0.168-2.991-0.257-4.755C8.236,60.481,8.971,60.354,9.7,60.188z M9.719,55.339  c0.555-0.124,1.105-0.285,1.654-0.454v4.566c-0.476,0.151-0.951,0.304-1.433,0.419C9.864,58.438,9.787,56.9,9.719,55.339z   M12.409,50.435c1.551,0.118,2.072,0.142,3.87,0.263c-0.104,1.562-0.209,3.125-0.313,4.687c-1.748-0.117-2.155-0.136-3.557-0.243  V50.435z M12.409,50.176v-4.745c1.692,0.134,2.356,0.199,4.2,0.322c-0.104,1.562-0.209,3.125-0.313,4.687  C14.492,50.319,13.974,50.296,12.409,50.176z M12.409,45.172v-4.717c1.646,0.131,2.763,0.235,4.53,0.354  c-0.104,1.562-0.209,3.124-0.313,4.687C14.776,45.372,14.115,45.308,12.409,45.172z M17.204,40.826  c1.905,0.127,3.812,0.242,5.718,0.346c-0.086,1.563-0.171,3.127-0.257,4.69c-1.924-0.105-3.849-0.222-5.771-0.349  C16.997,43.95,17.101,42.389,17.204,40.826z M17.221,40.57c0.104-1.563,0.207-3.125,0.312-4.688c1.886,0.124,3.772,0.239,5.66,0.342  c-0.086,1.563-0.172,3.127-0.257,4.69C21.03,40.812,19.125,40.695,17.221,40.57z M23.187,41.186c1.906,0.104,3.813,0.197,5.72,0.277  c-0.066,1.564-0.133,3.13-0.199,4.693c-1.926-0.082-3.851-0.174-5.774-0.279C23.017,44.313,23.102,42.749,23.187,41.186z   M23.2,40.93c0.085-1.563,0.169-3.127,0.254-4.689c1.888,0.101,3.775,0.192,5.663,0.273c-0.066,1.563-0.133,3.129-0.2,4.692  C27.012,41.125,25.105,41.033,23.2,40.93z M23.468,35.981c0.084-1.556,0.168-3.109,0.253-4.665c0.064,0.002,0.13,0.004,0.194,0.006  c-0.005-0.008-0.009-0.015-0.013-0.022c1.808,0.098,3.616,0.185,5.426,0.262c-0.066,1.565-0.134,3.129-0.199,4.694  C27.241,36.175,25.354,36.084,23.468,35.981z M29.379,36.523c1.889,0.08,3.777,0.147,5.666,0.207  c-0.048,1.564-0.096,3.129-0.144,4.694c-1.906-0.059-3.813-0.128-5.72-0.208C29.248,39.652,29.313,38.089,29.379,36.523z   M29.391,36.267c0.065-1.563,0.131-3.13,0.197-4.693c1.869,0.078,3.738,0.146,5.607,0.203c-0.048,1.565-0.095,3.131-0.143,4.695  C33.165,36.414,31.277,36.347,29.391,36.267z M29.69,31.31c-0.101-0.229-0.201-0.455-0.302-0.683  c1.896,0.042,3.794,0.078,5.69,0.109c0.082,0.254,0.163,0.509,0.245,0.764C33.446,31.443,31.567,31.389,29.69,31.31z M34.944,29.474  c1.948,0.03,3.897,0.055,5.846,0.073c0.059,0.299,0.116,0.599,0.174,0.898c-1.912-0.019-3.824-0.042-5.736-0.073  C35.133,30.073,35.038,29.773,34.944,29.474z M40.721,29.187c-1.963-0.02-3.927-0.043-5.891-0.075  c-0.196-0.625-0.393-1.251-0.589-1.876h6.104C40.471,27.886,40.596,28.536,40.721,29.187z M34.559,29.106  c-1.963-0.03-3.927-0.068-5.89-0.112c-0.259-0.585-0.518-1.173-0.776-1.759h6.066C34.159,27.859,34.359,28.482,34.559,29.106z   M28.396,28.988c-1.963-0.044-3.926-0.095-5.889-0.151c-0.303-0.533-0.605-1.068-0.908-1.602h6.014  C27.874,27.819,28.135,28.405,28.396,28.988z M22.234,28.83c-1.962-0.057-3.925-0.119-5.887-0.188  c-0.324-0.469-0.647-0.938-0.972-1.406h5.946C21.627,27.767,21.931,28.299,22.234,28.83z M16.075,28.633  c-1.963-0.07-3.926-0.146-5.888-0.227c-0.317-0.391-0.635-0.781-0.951-1.171h5.866C15.427,27.701,15.751,28.167,16.075,28.633z   M9.915,28.395c-0.822-0.034-1.644-0.072-2.466-0.109l-3.021-1.05h4.537C9.282,27.622,9.599,28.008,9.915,28.395z M3.801,28.114  c-0.004,0.307-0.02,1.484-0.036,3.208c-0.635-0.016-1.268-0.07-1.898-0.129v-3.752L3.801,28.114z M3.763,31.584  c-0.013,1.289-0.025,2.857-0.034,4.582c-0.623-0.021-1.243-0.079-1.862-0.143v-4.568C2.497,31.514,3.129,31.567,3.763,31.584z   M3.727,36.428c-0.007,1.446-0.012,2.997-0.013,4.584c-0.618-0.026-1.233-0.089-1.848-0.161v-4.568  C2.484,36.349,3.104,36.406,3.727,36.428z M3.715,41.273c0,1.521,0.005,3.068,0.017,4.583c-0.625-0.03-1.246-0.097-1.865-0.178  v-4.567C2.479,41.184,3.095,41.247,3.715,41.273z M3.733,46.117c0.013,1.588,0.032,3.134,0.062,4.567c0,0.008,0,0.015,0,0.022  c-0.647-0.035-1.289-0.107-1.929-0.199v-4.568C2.486,46.021,3.107,46.087,3.733,46.117z M3.801,50.968  c0.031,1.483,0.076,3.033,0.13,4.592c-0.692-0.037-1.381-0.115-2.064-0.222v-4.569C2.508,50.862,3.151,50.933,3.801,50.968z   M3.94,55.821c0.053,1.55,0.115,3.103,0.18,4.596c-0.757-0.039-1.509-0.121-2.254-0.248v-4.567  C2.552,55.71,3.244,55.784,3.94,55.821z M1.866,60.431c0.748,0.128,1.504,0.211,2.265,0.25c0.074,1.712,0.151,3.339,0.225,4.792  c-0.837-0.038-1.668-0.132-2.489-0.283V60.431z M4.199,55.834c0.936,0.038,1.878,0.015,2.819-0.073  c0.063,1.563,0.135,3.112,0.207,4.574c-0.95,0.098-1.901,0.13-2.846,0.094C4.314,58.936,4.253,57.384,4.199,55.834z M7.238,60.597  c0.088,1.766,0.178,3.395,0.255,4.76c-0.959,0.114-1.921,0.157-2.878,0.126c-0.072-1.452-0.15-3.079-0.224-4.791  C5.337,60.728,6.288,60.696,7.238,60.597z M7.509,65.616c0.065,1.126,0.121,2.056,0.161,2.709l-2.779,1.907  c-0.058-0.85-0.154-2.357-0.262-4.486C5.586,65.775,6.549,65.732,7.509,65.616z M7.772,65.584c0.742-0.099,1.482-0.242,2.217-0.427  c0.038,0.593,0.071,1.103,0.098,1.512L7.926,68.15C7.886,67.506,7.833,66.637,7.772,65.584z M9.954,60.129  c0.478-0.115,0.947-0.268,1.419-0.418v4.765c-0.381,0.125-0.76,0.255-1.145,0.357C10.148,63.556,10.052,61.934,9.954,60.129z   M12.409,55.398c1.386,0.106,1.8,0.127,3.539,0.242c-0.104,1.563-0.208,3.124-0.313,4.687c-1.834-0.122-1.758-0.098-3.227-0.211  V55.398z M16.221,55.659c1.963,0.129,3.926,0.249,5.89,0.356c-0.086,1.563-0.172,3.126-0.257,4.689  c-1.981-0.108-3.963-0.228-5.943-0.359C16.014,58.783,16.117,57.222,16.221,55.659z M16.238,55.401  c0.104-1.563,0.207-3.125,0.311-4.687c1.943,0.128,3.888,0.246,5.832,0.353c-0.086,1.563-0.172,3.127-0.257,4.69  C20.162,55.65,18.199,55.531,16.238,55.401z M16.565,50.458c0.104-1.563,0.207-3.125,0.312-4.688  c1.924,0.127,3.849,0.244,5.773,0.35c-0.085,1.563-0.17,3.127-0.256,4.69C20.451,50.705,18.508,50.587,16.565,50.458z M22.65,51.082  c1.944,0.105,3.889,0.199,5.835,0.282c-0.066,1.564-0.134,3.128-0.2,4.693c-1.963-0.085-3.927-0.179-5.889-0.285  C22.481,54.209,22.565,52.646,22.65,51.082z M22.664,50.824c0.085-1.563,0.17-3.127,0.254-4.69c1.926,0.105,3.852,0.198,5.777,0.279  c-0.066,1.565-0.133,3.13-0.199,4.694C26.552,51.025,24.607,50.93,22.664,50.824z M28.755,51.375  c1.945,0.082,3.891,0.152,5.837,0.213c-0.048,1.563-0.095,3.129-0.144,4.694c-1.963-0.061-3.928-0.131-5.891-0.214  C28.624,54.504,28.688,52.94,28.755,51.375z M28.766,51.118c0.066-1.563,0.132-3.129,0.197-4.692  c1.927,0.081,3.854,0.149,5.78,0.208c-0.048,1.565-0.096,3.132-0.144,4.697C32.654,51.271,30.71,51.2,28.766,51.118z M28.974,46.168  c0.066-1.565,0.132-3.129,0.197-4.693c1.907,0.08,3.814,0.148,5.723,0.207c-0.048,1.566-0.095,3.13-0.143,4.695  C32.825,46.318,30.899,46.248,28.974,46.168z M35.01,46.643c1.928,0.059,3.854,0.104,5.781,0.14  c-0.028,1.565-0.058,3.131-0.086,4.696c-1.945-0.034-3.891-0.082-5.835-0.14C34.916,49.773,34.964,48.208,35.01,46.643z   M35.018,46.385c0.047-1.565,0.095-3.13,0.141-4.694c1.908,0.057,3.816,0.104,5.725,0.138c-0.029,1.565-0.058,3.131-0.087,4.696  C38.87,46.489,36.943,46.442,35.018,46.385z M35.166,41.433c0.047-1.565,0.094-3.13,0.141-4.694  c1.889,0.056,3.778,0.102,5.667,0.136c-0.028,1.565-0.058,3.131-0.087,4.696C38.98,41.536,37.073,41.489,35.166,41.433z   M35.314,36.479c0.047-1.564,0.094-3.13,0.141-4.695c1.869,0.057,3.739,0.102,5.609,0.136c-0.028,1.565-0.058,3.131-0.086,4.696  C39.09,36.582,37.202,36.537,35.314,36.479z M64.545,31.784c0.047,1.565,0.095,3.131,0.141,4.695  c-1.888,0.058-3.776,0.103-5.665,0.137c-0.028-1.565-0.057-3.131-0.086-4.696C60.806,31.886,62.676,31.841,64.545,31.784z   M64.694,36.738c0.046,1.564,0.093,3.129,0.14,4.694c-1.907,0.057-3.814,0.104-5.722,0.138c-0.028-1.565-0.058-3.131-0.086-4.696  C60.916,36.84,62.805,36.794,64.694,36.738z M64.842,41.69c0.047,1.564,0.094,3.129,0.141,4.694  c-1.926,0.058-3.853,0.104-5.779,0.14c-0.028-1.565-0.058-3.131-0.086-4.696C61.026,41.794,62.934,41.747,64.842,41.69z   M64.989,46.643c0.048,1.565,0.095,3.131,0.142,4.696c-1.945,0.058-3.892,0.105-5.837,0.14c-0.028-1.565-0.058-3.131-0.086-4.696  C61.136,46.747,63.063,46.701,64.989,46.643z M65.106,41.682c1.907-0.059,3.815-0.127,5.723-0.207  c0.065,1.564,0.131,3.128,0.197,4.693c-1.925,0.08-3.852,0.15-5.776,0.209C65.202,44.812,65.154,43.247,65.106,41.682z   M71.036,46.426c0.066,1.563,0.132,3.129,0.197,4.692c-1.944,0.082-3.889,0.153-5.833,0.213c-0.047-1.565-0.095-3.132-0.144-4.697  C67.185,46.575,69.11,46.507,71.036,46.426z M71.245,51.375c0.065,1.565,0.132,3.129,0.197,4.693  c-1.964,0.083-3.927,0.153-5.891,0.214c-0.048-1.565-0.096-3.131-0.143-4.695C67.354,51.527,69.3,51.457,71.245,51.375z   M71.304,46.413c1.927-0.081,3.854-0.174,5.778-0.279c0.085,1.563,0.169,3.127,0.254,4.69c-1.943,0.105-3.888,0.201-5.832,0.283  C71.438,49.543,71.37,47.979,71.304,46.413z M77.351,51.082c0.084,1.563,0.169,3.127,0.253,4.69c-1.963,0.106-3.925,0.2-5.889,0.285  c-0.066-1.565-0.134-3.129-0.2-4.693C73.461,51.281,75.405,51.188,77.351,51.082z M77.618,56.029  c0.085,1.563,0.169,3.127,0.254,4.691c-1.981,0.106-3.964,0.202-5.946,0.287c-0.067-1.564-0.134-3.129-0.2-4.692  C73.69,56.231,75.654,56.136,77.618,56.029z M77.62,51.067c1.944-0.106,3.888-0.225,5.831-0.353  c0.104,1.562,0.207,3.124,0.311,4.687c-1.962,0.13-3.923,0.249-5.886,0.356C77.791,54.194,77.705,52.631,77.62,51.067z   M83.779,55.659c0.103,1.563,0.206,3.124,0.311,4.687c-1.98,0.132-3.962,0.251-5.942,0.359c-0.086-1.563-0.171-3.127-0.257-4.689  C79.854,55.908,81.816,55.788,83.779,55.659z M83.722,50.697c1.794-0.121,2.323-0.159,3.868-0.28v4.723  c-1.415,0.108-1.799,0.126-3.556,0.244C83.93,53.821,83.825,52.259,83.722,50.697z M88.627,59.712  c0.471,0.149,0.941,0.302,1.417,0.417c-0.097,1.805-0.193,3.427-0.273,4.704c-0.385-0.103-0.764-0.232-1.144-0.358V59.712z   M90.01,65.157c0.734,0.185,1.475,0.328,2.217,0.427c-0.061,1.053-0.112,1.923-0.152,2.567l-2.162-1.483  C89.939,66.26,89.973,65.75,90.01,65.157z M92.491,65.616c0.959,0.116,1.923,0.159,2.879,0.13c-0.102,2.009-0.191,3.543-0.25,4.493  l-2.791-1.914C92.369,67.672,92.426,66.742,92.491,65.616z M92.506,65.356c0.077-1.365,0.166-2.994,0.255-4.76  c0.949,0.1,1.901,0.131,2.848,0.095c-0.074,1.712-0.152,3.339-0.226,4.791C94.427,65.514,93.465,65.471,92.506,65.356z   M92.773,60.335c0.072-1.462,0.144-3.011,0.207-4.574c0.941,0.088,1.883,0.111,2.821,0.073c-0.056,1.55-0.117,3.102-0.182,4.595  C94.675,60.465,93.724,60.433,92.773,60.335z M95.868,60.681c0.761-0.039,1.516-0.122,2.265-0.25v4.759  c-0.82,0.151-1.652,0.245-2.488,0.283C95.717,64.02,95.793,62.393,95.868,60.681z M98.133,60.169  c-0.743,0.127-1.497,0.209-2.253,0.248c0.064-1.493,0.126-3.046,0.18-4.596c0.696-0.037,1.387-0.111,2.073-0.22V60.169z   M96.068,55.56c0.053-1.559,0.099-3.108,0.131-4.592c0.648-0.035,1.292-0.105,1.934-0.199v4.569  C97.45,55.444,96.762,55.522,96.068,55.56z M96.205,50.707c0-0.008,0-0.015,0-0.022c0.028-1.434,0.048-2.979,0.061-4.567  c0.626-0.03,1.248-0.096,1.867-0.178v4.568C97.493,50.6,96.852,50.672,96.205,50.707z M96.268,45.857  c0.012-1.516,0.017-3.063,0.017-4.584c0.619-0.026,1.234-0.09,1.849-0.162v4.567C97.515,45.76,96.894,45.826,96.268,45.857z   M96.284,41.012c0-1.587-0.005-3.138-0.012-4.584c0.624-0.021,1.242-0.079,1.86-0.146v4.568  C97.519,40.923,96.903,40.985,96.284,41.012z M96.271,36.166c-0.01-1.725-0.021-3.293-0.033-4.582  c0.635-0.017,1.266-0.07,1.896-0.129v4.568C97.514,36.087,96.895,36.146,96.271,36.166z M96.235,31.322  c-0.018-1.724-0.032-2.9-0.037-3.208l1.935-0.673v3.752C97.502,31.252,96.87,31.307,96.235,31.322z M1.866,65.451  c0.825,0.152,1.661,0.246,2.502,0.285c0.117,2.306,0.219,3.865,0.274,4.666l-2.776,1.904V65.451z M10.335,66.499  c-0.025-0.392-0.056-0.861-0.09-1.408c0.379-0.102,0.753-0.23,1.128-0.356v1.053L10.335,66.499z M12.409,65.937v-5.562  c1.45,0.11,1.382,0.086,3.209,0.209c-0.117,1.751-0.233,3.716-0.352,5.475C13.749,65.996,12.757,65.953,12.409,65.937z   M15.545,66.07c0.116-1.756,0.232-3.72,0.349-5.469c1.981,0.131,3.963,0.251,5.945,0.359c-0.097,1.778-0.194,3.558-0.291,5.337  C19.14,66.212,17.101,66.133,15.545,66.07z M27.84,66.504c-2.165-0.065-4.189-0.132-6.014-0.196  c0.096-1.777,0.192-3.555,0.288-5.331c1.982,0.107,3.966,0.202,5.949,0.287C27.989,63.01,27.915,64.757,27.84,66.504z   M22.128,60.721c0.085-1.564,0.17-3.128,0.255-4.691c1.963,0.106,3.927,0.202,5.892,0.286c-0.067,1.563-0.134,3.128-0.2,4.692  C26.092,60.924,24.11,60.827,22.128,60.721z M34.132,66.677c-2.087-0.052-4.103-0.107-6.014-0.164  c0.074-1.746,0.147-3.491,0.221-5.237c1.983,0.083,3.967,0.154,5.951,0.216C34.237,63.22,34.185,64.948,34.132,66.677z   M28.35,61.019c0.065-1.563,0.131-3.128,0.197-4.692c1.965,0.082,3.929,0.154,5.895,0.214c-0.048,1.564-0.096,3.13-0.144,4.694  C32.314,61.175,30.332,61.103,28.35,61.019z M40.423,66.812c-2.043-0.036-4.056-0.08-6.013-0.128  c0.052-1.728,0.104-3.456,0.155-5.185c1.984,0.06,3.969,0.107,5.952,0.144C40.486,63.366,40.455,65.089,40.423,66.812z   M40.523,61.388c-1.984-0.037-3.968-0.085-5.95-0.144c0.047-1.566,0.094-3.131,0.14-4.696c1.966,0.059,3.932,0.106,5.896,0.143  C40.58,58.257,40.552,59.822,40.523,61.388z M40.614,56.433c-1.965-0.036-3.929-0.083-5.893-0.142  c0.046-1.565,0.094-3.13,0.14-4.694c1.946,0.058,3.893,0.104,5.839,0.14C40.672,53.302,40.643,54.867,40.614,56.433z M46.715,66.901  c-2.011-0.021-4.024-0.05-6.014-0.085c0.031-1.724,0.062-3.446,0.093-5.169c1.984,0.036,3.969,0.061,5.953,0.072  C46.737,63.447,46.726,65.174,46.715,66.901z M46.749,61.464c-1.983-0.013-3.967-0.037-5.951-0.072  c0.028-1.564,0.057-3.13,0.084-4.695c1.966,0.034,3.932,0.059,5.897,0.07C46.769,58.332,46.759,59.897,46.749,61.464z M46.78,56.51  c-1.965-0.013-3.929-0.037-5.894-0.072c0.027-1.564,0.056-3.13,0.084-4.695c1.946,0.034,3.893,0.058,5.839,0.069  C46.8,53.379,46.79,54.944,46.78,56.51z M46.812,51.555c-1.945-0.012-3.891-0.035-5.836-0.07c0.027-1.565,0.056-3.131,0.083-4.697  c1.928,0.034,3.855,0.058,5.782,0.069C46.832,48.423,46.821,49.989,46.812,51.555z M46.843,46.6  c-1.927-0.012-3.853-0.035-5.779-0.069c0.028-1.566,0.056-3.132,0.084-4.697c1.908,0.033,3.816,0.058,5.726,0.07  C46.862,43.469,46.853,45.034,46.843,46.6z M46.874,41.646c-1.907-0.012-3.814-0.036-5.722-0.069  c0.027-1.566,0.056-3.132,0.084-4.696c1.889,0.032,3.778,0.056,5.667,0.068C46.894,38.514,46.884,40.079,46.874,41.646z   M46.905,36.689c-1.889-0.012-3.776-0.034-5.665-0.067c0.028-1.566,0.056-3.133,0.084-4.698c1.87,0.034,3.74,0.057,5.61,0.069  C46.925,33.559,46.915,35.124,46.905,36.689z M52.933,66.935c-1.956,0-3.945-0.011-5.939-0.031c0.01-1.727,0.021-3.455,0.03-5.182  c1.984,0.011,3.97,0.011,5.954,0c0.01,1.738,0.019,3.476,0.03,5.213C52.982,66.935,52.958,66.935,52.933,66.935z M53.065,31.993  c1.87-0.013,3.74-0.035,5.61-0.069c0.027,1.565,0.056,3.132,0.084,4.698c-1.889,0.033-3.776,0.056-5.665,0.067  C53.085,35.124,53.075,33.559,53.065,31.993z M53.097,36.948c1.889-0.013,3.778-0.036,5.667-0.068  c0.028,1.564,0.056,3.13,0.084,4.696c-1.907,0.033-3.814,0.058-5.722,0.069C53.116,40.079,53.106,38.514,53.097,36.948z   M53.128,41.903c1.908-0.013,3.816-0.037,5.724-0.07c0.028,1.565,0.057,3.131,0.084,4.697c-1.926,0.033-3.852,0.058-5.778,0.069  C53.147,45.034,53.138,43.469,53.128,41.903z M53.159,46.856c1.928-0.012,3.854-0.035,5.782-0.069  c0.027,1.566,0.056,3.132,0.084,4.697c-1.945,0.035-3.891,0.059-5.837,0.07C53.179,49.989,53.169,48.423,53.159,46.856z   M53.19,51.812c1.946-0.012,3.893-0.035,5.839-0.069c0.028,1.565,0.056,3.131,0.084,4.695c-1.965,0.035-3.929,0.06-5.893,0.072  C53.21,54.944,53.2,53.379,53.19,51.812z M53.222,56.767c1.965-0.012,3.931-0.036,5.896-0.07c0.027,1.565,0.056,3.131,0.083,4.695  c-1.982,0.035-3.967,0.06-5.949,0.072C53.241,59.897,53.231,58.332,53.222,56.767z M53.285,66.934  c-0.011-1.737-0.021-3.475-0.032-5.214c1.984-0.012,3.969-0.036,5.953-0.072c0.03,1.75,0.063,3.5,0.094,5.25  C57.342,66.92,55.332,66.933,53.285,66.934z M59.3,51.736c1.946-0.035,3.893-0.082,5.839-0.14c0.047,1.564,0.093,3.129,0.141,4.694  c-1.965,0.059-3.929,0.105-5.894,0.142C59.357,54.867,59.328,53.302,59.3,51.736z M59.391,56.69  c1.966-0.036,3.932-0.084,5.896-0.143c0.048,1.565,0.095,3.13,0.141,4.696c-1.982,0.059-3.966,0.106-5.95,0.144  C59.448,59.822,59.419,58.257,59.391,56.69z M59.578,66.895c-0.031-1.75-0.065-3.502-0.097-5.252  c1.985-0.036,3.969-0.084,5.954-0.144c0.052,1.765,0.105,3.529,0.159,5.294C63.661,66.835,61.651,66.87,59.578,66.895z M65.56,56.54  c1.965-0.06,3.93-0.132,5.893-0.214c0.066,1.564,0.132,3.129,0.198,4.692c-1.982,0.084-3.965,0.156-5.948,0.216  C65.655,59.67,65.607,58.104,65.56,56.54z M65.872,66.787c-0.054-1.766-0.107-3.53-0.161-5.296c1.983-0.062,3.967-0.133,5.95-0.216  c0.075,1.78,0.15,3.561,0.225,5.34c0.093-0.003,0.186-0.007,0.277-0.012c-0.075-1.78-0.15-3.561-0.227-5.34  c1.983-0.085,3.967-0.181,5.949-0.288c0.096,1.753,0.189,3.665,0.285,5.422C74.743,66.539,70.547,66.683,65.872,66.787z   M84.454,66.105c-1.528,0.08-3.561,0.18-6.005,0.28c-0.097-1.758-0.192-3.672-0.289-5.425c1.983-0.108,3.965-0.229,5.946-0.359  C84.223,62.352,84.338,64.349,84.454,66.105z M84.364,60.327c-0.104-1.563-0.209-3.124-0.313-4.687  c1.748-0.116,2.14-0.137,3.538-0.243v4.679C86.122,60.194,86.198,60.205,84.364,60.327z M88.627,64.734  c0.374,0.126,0.748,0.255,1.128,0.356c-0.034,0.547-0.065,1.017-0.091,1.408l-1.037-0.712V64.734z M95.369,70.411  c0.059-0.931,0.155-2.545,0.262-4.675c0.842-0.039,1.677-0.133,2.502-0.285v6.855L95.369,70.411z"/>
</svg>