<svg xmlns="http://www.w3.org/2000/svg" xmlns:xlink="http://www.w3.org/1999/xlink" version="1.1" id="Capa_1" x="0px" y="0px" width="100px" height="100px" viewBox="0 0 100 100" enable-background="new 0 0 100 100" xml:space="preserve">
<g id="Capa_2">
	<g>
		<path d="M77.171,42.207l-5.118,1.427c-0.029,0.002-0.057,0.001-0.089,0.008c-1.134,0.199-1.647,0.13-2.301-0.646h-0.019    c-0.563-0.688-1.35-1.099-2.188-1.2l0.003-0.02l-8.037-1.311c-0.097-0.015-0.192-0.021-0.289-0.021l-9.29,0.636l0.034,2.358    l9.158,0.376l3.098,0.506l-5.891,3.855c-0.095,0.063-0.173,0.139-0.257,0.208l-8.378,2.838c-0.314,0.106-0.599,0.285-0.831,0.521    l-5.798,5.934l3.01,2.942l5.447-5.572l4.027-1.362L49.1,57.447c-0.069,0.06-0.134,0.123-0.195,0.191l-7.088,7.938l3.141,2.805    l6.998-7.837l7.522-6.488c0.154-0.07,0.307-0.147,0.453-0.244l8.793-5.755l9.432-2.625c0.1-0.024,0.195-0.06,0.289-0.103    l8.181-4.348l-0.991-2.138L77.171,42.207z"/>
		<path d="M74.508,41.752c1.989-0.937,2.842-3.309,1.898-5.304c-0.939-1.984-3.314-2.835-5.301-1.896    c-1.986,0.939-2.836,3.313-1.896,5.3C70.15,41.845,72.521,42.693,74.508,41.752z"/>
		<path d="M90.34,28.446c-2.14,0.533-3.438,2.693-2.906,4.825c0.53,2.134,2.688,3.433,4.825,2.9    c2.134-0.529,3.433-2.687,2.902-4.821C94.634,29.217,92.473,27.917,90.34,28.446z"/>
		<path d="M59.363,44.939l0.074-0.048l-0.074-0.013C59.363,44.899,59.363,44.918,59.363,44.939z"/>
		<path d="M98.335,24.195H1.665C0.745,24.195,0,24.94,0,25.86v49.945h3.33v-5.529c1.081,0.016,2.657,0.035,4.636,0.059    c0.03,1.316,0.063,2.445,0.081,3.326c0.04,1.365,0.063,2.146,0.063,2.146s0.023-0.781,0.065-2.146    c0.017-0.881,0.051-2.008,0.08-3.322c1.766,0.021,3.841,0.048,6.157,0.077c0.03,1.282,0.063,2.381,0.079,3.245    c0.041,1.365,0.064,2.146,0.064,2.146s0.023-0.781,0.065-2.146c0.017-0.862,0.049-1.962,0.078-3.243    c0.674,0.01,1.36,0.019,2.073,0.026c1.301,0.009,2.67,0.018,4.086,0.027c0.029,1.258,0.062,2.336,0.078,3.188    c0.041,1.364,0.064,2.146,0.064,2.146s0.023-0.779,0.065-2.146c0.017-0.853,0.048-1.931,0.077-3.188    c1.963,0.014,4.023,0.026,6.163,0.041c0.028,1.24,0.06,2.307,0.077,3.147c0.041,1.364,0.063,2.146,0.063,2.146    s0.023-0.779,0.065-2.146c0.016-0.841,0.047-1.906,0.075-3.146c1.523,0.008,3.079,0.02,4.668,0.029    c0.492,0.001,1,0.002,1.497,0.004c0.029,1.225,0.059,2.278,0.076,3.111c0.04,1.365,0.063,2.146,0.063,2.146    s0.023-0.781,0.065-2.146c0.016-0.833,0.047-1.887,0.076-3.11c2.021,0.004,4.076,0.009,6.165,0.015    c0.028,1.218,0.059,2.267,0.075,3.097c0.041,1.364,0.064,2.146,0.064,2.146s0.023-0.779,0.065-2.146    c0.016-0.83,0.047-1.877,0.074-3.095c2.038,0.004,4.097,0.011,6.167,0.016c0.028,1.211,0.058,2.253,0.075,3.079    c0.041,1.364,0.064,2.146,0.064,2.146s0.023-0.779,0.065-2.146c0.016-0.826,0.045-1.868,0.074-3.079    c1.027,0.003,2.054,0.005,3.083,0.008c1.029-0.003,2.057-0.005,3.083-0.008c0.028,1.211,0.06,2.253,0.075,3.079    c0.041,1.364,0.064,2.146,0.064,2.146s0.022-0.779,0.063-2.146c0.016-0.826,0.046-1.868,0.073-3.079    c2.07-0.005,4.129-0.012,6.168-0.016c0.027,1.218,0.058,2.265,0.074,3.095c0.041,1.364,0.063,2.146,0.063,2.146    s0.022-0.779,0.065-2.146c0.016-0.83,0.047-1.877,0.074-3.095c2.09-0.006,4.144-0.012,6.166-0.017    c0.027,1.224,0.059,2.277,0.074,3.11c0.04,1.365,0.063,2.146,0.063,2.146s0.023-0.781,0.065-2.146    c0.017-0.833,0.048-1.887,0.075-3.111c0.497,0,1.004-0.002,1.496-0.003c1.591-0.011,3.146-0.021,4.668-0.03    c0.027,1.238,0.061,2.305,0.076,3.146c0.041,1.364,0.064,2.146,0.064,2.146s0.022-0.779,0.063-2.146    c0.016-0.843,0.047-1.907,0.075-3.146c2.141-0.016,4.201-0.029,6.162-0.043c0.03,1.26,0.063,2.338,0.078,3.188    c0.041,1.364,0.063,2.146,0.063,2.146s0.022-0.779,0.065-2.146c0.017-0.853,0.047-1.931,0.076-3.188    c1.416-0.011,2.785-0.02,4.088-0.027c0.713-0.008,1.397-0.018,2.071-0.024c0.03,1.28,0.063,2.379,0.079,3.241    c0.041,1.365,0.063,2.146,0.063,2.146s0.023-0.781,0.065-2.146c0.017-0.864,0.05-1.963,0.078-3.245    c2.317-0.028,4.392-0.056,6.157-0.077c0.029,1.314,0.063,2.441,0.08,3.322c0.041,1.365,0.063,2.146,0.063,2.146    s0.023-0.781,0.063-2.146c0.019-0.882,0.052-2.01,0.08-3.325c1.979-0.024,3.556-0.044,4.636-0.06v5.529H100V25.86    C100,24.94,99.255,24.195,98.335,24.195z M3.33,36.979c1.064,0.013,2.608,0.032,4.543,0.056C7.85,38.5,7.827,40.047,7.821,41.663    c-0.001,0.252-0.002,0.514-0.004,0.77c-1.909,0.023-3.433,0.042-4.487,0.055V36.979z M3.33,42.529    c1.055,0.013,2.578,0.031,4.487,0.056c-0.009,1.753-0.017,3.561-0.026,5.398c-1.898,0.023-3.412,0.042-4.461,0.054V42.529z     M3.33,48.079c1.05,0.013,2.563,0.031,4.461,0.055c-0.005,0.897-0.009,1.797-0.013,2.699c0.004,0.901,0.008,1.802,0.013,2.699    c-1.898,0.022-3.412,0.043-4.461,0.056V48.079z M3.33,53.628c1.05,0.013,2.563,0.032,4.461,0.056    c0.009,1.836,0.018,3.646,0.026,5.397c-1.909,0.022-3.433,0.042-4.487,0.055V53.628z M3.33,59.178    c1.055,0.014,2.578,0.031,4.489,0.057c0.001,0.255,0.002,0.517,0.004,0.769c0.006,1.616,0.028,3.163,0.05,4.628    c-1.935,0.023-3.479,0.043-4.543,0.057V59.178z M3.33,70.234v-5.508c1.065,0.014,2.609,0.031,4.546,0.057    c0.018,1.13,0.036,2.216,0.048,3.218c0.009,0.772,0.023,1.497,0.038,2.176C5.984,70.201,4.411,70.221,3.33,70.234z M7.922,33.664    c-0.012,1.002-0.03,2.089-0.048,3.218c-1.937,0.024-3.479,0.043-4.544,0.057v-5.508c1.08,0.013,2.655,0.033,4.632,0.057    C7.946,32.168,7.933,32.893,7.922,33.664z M8.044,28.006c-0.017,0.882-0.051,2.009-0.081,3.326    c-1.979,0.024-3.553,0.044-4.634,0.057v-3.864h4.73C8.055,27.676,8.05,27.837,8.044,28.006z M8.258,70.174    c0.016-0.679,0.029-1.4,0.039-2.173c0.012-1,0.03-2.085,0.047-3.213c1.723,0.022,3.735,0.047,5.978,0.073    c0.017,1.102,0.035,2.16,0.047,3.14c0.009,0.742,0.022,1.438,0.037,2.097C12.092,70.126,10.021,70.152,8.258,70.174z     M14.234,53.452c-2.171,0.026-4.123,0.051-5.805,0.071c0.004-0.896,0.008-1.793,0.013-2.691c-0.005-0.899-0.009-1.796-0.013-2.691    c1.682,0.021,3.634,0.045,5.805,0.071c-0.004,0.872-0.008,1.744-0.012,2.62C14.227,51.708,14.23,52.582,14.234,53.452z     M8.428,47.975c-0.008-1.832-0.017-3.634-0.025-5.384c1.695,0.021,3.664,0.046,5.858,0.073c-0.009,1.702-0.017,3.458-0.026,5.237    C12.063,47.929,10.111,47.954,8.428,47.975z M8.428,53.691c1.683,0.021,3.635,0.043,5.809,0.07    c0.008,1.78,0.017,3.535,0.025,5.237c-2.194,0.026-4.164,0.053-5.859,0.073C8.411,57.325,8.419,55.521,8.428,53.691z     M14.263,59.313c0.001,0.229,0.003,0.463,0.004,0.689c0.007,1.587,0.027,3.107,0.05,4.549c-2.239,0.026-4.248,0.053-5.97,0.072    c0.023-1.462,0.044-3.007,0.052-4.621c0.001-0.25,0.002-0.509,0.004-0.762C10.098,59.261,12.069,59.285,14.263,59.313z     M14.266,41.663c-0.001,0.226-0.001,0.46-0.003,0.689c-2.194,0.027-4.165,0.052-5.86,0.073c-0.001-0.252-0.003-0.511-0.004-0.762    c-0.005-1.614-0.027-3.159-0.051-4.622c1.721,0.021,3.729,0.046,5.969,0.074C14.293,38.556,14.272,40.076,14.266,41.663z     M8.345,36.876c-0.018-1.127-0.036-2.212-0.048-3.212c-0.009-0.77-0.023-1.493-0.038-2.173c1.762,0.021,3.833,0.047,6.144,0.076    c-0.014,0.657-0.027,1.355-0.037,2.097c-0.012,0.979-0.028,2.038-0.046,3.139C12.079,36.831,10.068,36.855,8.345,36.876z     M14.489,28.006c-0.017,0.864-0.049,1.963-0.078,3.246c-2.316,0.029-4.39,0.054-6.156,0.076c-0.03-1.314-0.064-2.441-0.081-3.322    c-0.005-0.169-0.01-0.33-0.014-0.481h6.345C14.5,27.676,14.494,27.837,14.489,28.006z M16.771,70.068    c-0.71,0.01-1.395,0.018-2.067,0.024c0.015-0.655,0.027-1.352,0.038-2.093c0.01-0.977,0.028-2.034,0.045-3.132    c0.645,0.008,1.303,0.016,1.983,0.022c1.273,0.01,2.612,0.019,3.997,0.027c0.017,1.079,0.034,2.12,0.045,3.081    c0.009,0.721,0.022,1.399,0.035,2.041C19.434,70.051,18.068,70.061,16.771,70.068z M20.679,53.395    c-1.353,0.01-2.662,0.02-3.908,0.026c-0.65,0.009-1.278,0.017-1.896,0.022c0.004-0.868,0.009-1.738,0.013-2.611    c-0.004-0.873-0.009-1.743-0.013-2.612c0.618,0.008,1.246,0.016,1.896,0.023c1.246,0.009,2.556,0.017,3.908,0.026    c-0.004,0.852-0.008,1.707-0.012,2.563C20.671,51.688,20.675,52.543,20.679,53.395z M16.771,47.871    c-0.65,0.009-1.28,0.016-1.897,0.023c-0.008-1.774-0.017-3.524-0.025-5.222c0.625,0.006,1.263,0.016,1.922,0.023    c1.254,0.008,2.573,0.017,3.935,0.026c-0.008,1.667-0.016,3.383-0.023,5.125C19.328,47.854,18.018,47.863,16.771,47.871z     M14.873,53.771c0.618,0.008,1.247,0.016,1.897,0.022c1.247,0.008,2.557,0.017,3.911,0.026c0.008,1.74,0.017,3.457,0.024,5.123    c-1.363,0.009-2.681,0.019-3.936,0.024c-0.66,0.011-1.297,0.019-1.922,0.025C14.856,57.295,14.864,55.546,14.873,53.771z     M16.771,42.321c-0.66,0.009-1.298,0.017-1.924,0.025c-0.001-0.226-0.002-0.459-0.004-0.683c-0.005-1.584-0.027-3.103-0.049-4.542    c0.643,0.008,1.298,0.016,1.977,0.024c1.271,0.009,2.606,0.017,3.989,0.026c-0.022,1.424-0.043,2.926-0.05,4.491    c-0.001,0.208-0.001,0.422-0.002,0.633C19.344,42.304,18.025,42.313,16.771,42.321z M14.843,60.002    c0.001-0.225,0.001-0.456,0.003-0.684c0.627,0.009,1.265,0.018,1.925,0.024c1.255,0.009,2.574,0.017,3.937,0.026    c0.001,0.209,0.002,0.424,0.004,0.632c0.006,1.563,0.027,3.067,0.049,4.491c-1.382,0.009-2.72,0.019-3.99,0.025    c-0.679,0.01-1.334,0.018-1.979,0.024C14.814,63.105,14.836,61.586,14.843,60.002z M20.812,33.664    c-0.01,0.962-0.028,2.003-0.045,3.083c-1.384,0.009-2.722,0.018-3.996,0.026c-0.68,0.009-1.337,0.017-1.982,0.025    c-0.017-1.099-0.035-2.157-0.046-3.133c-0.009-0.74-0.022-1.438-0.037-2.093c0.671,0.008,1.355,0.016,2.065,0.024    c1.298,0.009,2.664,0.019,4.078,0.027C20.833,32.265,20.821,32.943,20.812,33.664z M20.934,28.006    c-0.017,0.852-0.048,1.931-0.077,3.19c-1.416,0.009-2.786,0.018-4.086,0.026c-0.713,0.009-1.398,0.018-2.072,0.025    c-0.03-1.281-0.063-2.379-0.08-3.242c-0.005-0.169-0.01-0.33-0.014-0.481h6.345C20.944,27.676,20.939,27.837,20.934,28.006z     M21.15,70.04c0.014-0.642,0.027-1.317,0.036-2.039c0.011-0.96,0.027-2,0.046-3.079c1.907,0.014,3.907,0.026,5.98,0.039    c0.017,1.064,0.034,2.092,0.046,3.04c0.009,0.705,0.021,1.369,0.035,1.999C25.16,70.014,23.106,70.027,21.15,70.04z     M27.124,53.354c-2.011,0.014-3.951,0.025-5.805,0.037c0.004-0.851,0.009-1.703,0.013-2.558c-0.004-0.854-0.009-1.708-0.013-2.559    c1.854,0.013,3.794,0.025,5.805,0.039c-0.004,0.838-0.008,1.678-0.012,2.52C27.116,51.674,27.12,52.516,27.124,53.354z     M21.317,47.841c-0.008-1.737-0.017-3.451-0.024-5.115c1.87,0.012,3.828,0.024,5.856,0.038c-0.008,1.64-0.016,3.329-0.023,5.04    C25.114,47.816,23.172,47.829,21.317,47.841z M21.317,53.824c1.855,0.012,3.797,0.023,5.809,0.037    c0.007,1.712,0.015,3.399,0.024,5.039c-2.03,0.015-3.989,0.026-5.858,0.039C21.301,57.275,21.309,55.563,21.317,53.824z     M21.292,42.292c-0.001-0.209-0.002-0.423-0.004-0.629c-0.005-1.563-0.026-3.065-0.048-4.488c1.901,0.013,3.895,0.025,5.963,0.04    c-0.022,1.411-0.042,2.899-0.048,4.448c0,0.193-0.001,0.395-0.002,0.59C25.122,42.267,23.162,42.279,21.292,42.292z     M21.288,60.002c0.001-0.207,0.001-0.42,0.002-0.628c1.872,0.012,3.832,0.024,5.863,0.037c0,0.196,0.001,0.397,0.003,0.591    c0.006,1.549,0.026,3.038,0.048,4.449c-2.068,0.014-4.063,0.025-5.966,0.039C21.26,63.066,21.281,61.566,21.288,60.002z     M21.232,36.743c-0.017-1.079-0.034-2.118-0.046-3.079c-0.009-0.72-0.021-1.398-0.035-2.039c1.957,0.013,4.009,0.027,6.141,0.041    c-0.014,0.629-0.026,1.293-0.035,1.999c-0.01,0.949-0.027,1.976-0.044,3.04C25.138,36.718,23.139,36.731,21.232,36.743z     M27.378,28.007c-0.016,0.841-0.048,1.907-0.077,3.147c-2.138,0.014-4.198,0.028-6.16,0.041c-0.029-1.259-0.061-2.337-0.078-3.188    c-0.005-0.169-0.01-0.33-0.014-0.481h6.344C27.389,27.676,27.384,27.837,27.378,28.007z M32.252,69.968    c-1.585,0.011-3.138,0.021-4.656,0.029c0.013-0.628,0.026-1.291,0.035-1.996c0.01-0.948,0.027-1.974,0.044-3.037    c1.493,0.011,3.019,0.021,4.577,0.031c0.462,0,0.939,0.001,1.406,0.003c0.017,1.051,0.032,2.064,0.044,3.003    c0.009,0.69,0.021,1.345,0.034,1.963C33.243,69.965,32.74,69.966,32.252,69.968z M27.765,48.317c1.465,0.009,2.96,0.02,4.487,0.03    c0.432,0,0.879,0.001,1.316,0.003c-0.004,0.826-0.008,1.654-0.012,2.483c0.004,0.83,0.008,1.659,0.012,2.483    c-0.437,0-0.884,0.002-1.316,0.004c-1.527,0.011-3.022,0.02-4.488,0.027c0.005-0.836,0.009-1.675,0.013-2.515    C27.772,49.992,27.769,49.153,27.765,48.317z M32.252,53.896c0.433,0,0.882,0.002,1.319,0.004    c0.008,1.686,0.016,3.349,0.023,4.966c-0.445,0.001-0.901,0.003-1.342,0.003c-1.536,0.01-3.041,0.021-4.515,0.029    c0.008-1.639,0.016-3.321,0.025-5.032C29.227,53.876,30.725,53.887,32.252,53.896z M33.571,47.766    c-0.437,0.001-0.886,0.002-1.319,0.004c-1.527,0.01-3.025,0.02-4.49,0.03c-0.009-1.709-0.017-3.395-0.025-5.032    c1.474,0.01,2.979,0.02,4.515,0.03c0.441,0.001,0.897,0.003,1.342,0.003C33.586,44.417,33.579,46.08,33.571,47.766z M32.252,42.22    c-1.537,0.01-3.042,0.021-4.517,0.03c0-0.194-0.001-0.394-0.002-0.586c-0.005-1.548-0.026-3.035-0.048-4.446    c1.491,0.01,3.014,0.02,4.568,0.031c0.458,0,0.933,0.002,1.396,0.003c-0.022,1.4-0.042,2.877-0.048,4.412    c0,0.182-0.001,0.371-0.002,0.554C33.151,42.218,32.694,42.22,32.252,42.22z M27.732,60.002c0-0.191,0.001-0.393,0.002-0.587    c1.474,0.011,2.98,0.021,4.517,0.03c0.442,0,0.9,0.003,1.346,0.003c0,0.183,0.001,0.372,0.002,0.554    c0.007,1.536,0.026,3.014,0.048,4.412c-0.463,0.001-0.938,0.002-1.397,0.004c-1.556,0.01-3.079,0.021-4.569,0.029    C27.705,63.038,27.726,61.551,27.732,60.002z M32.252,36.671c-1.557,0.011-3.083,0.021-4.576,0.03    c-0.017-1.063-0.034-2.088-0.045-3.036c-0.009-0.704-0.021-1.369-0.034-1.997c1.518,0.01,3.069,0.02,4.655,0.031    c0.488,0.001,0.991,0.002,1.483,0.003c-0.013,0.619-0.025,1.271-0.034,1.962c-0.011,0.938-0.027,1.953-0.044,3.003    C33.191,36.668,32.714,36.67,32.252,36.671z M33.823,28.006c-0.016,0.833-0.047,1.887-0.075,3.111    c-0.497,0.001-1.004,0.002-1.496,0.004c-1.589,0.01-3.145,0.021-4.667,0.031c-0.029-1.239-0.06-2.305-0.077-3.146    c-0.005-0.17-0.011-0.331-0.015-0.482h6.345C33.833,27.676,33.829,27.837,33.823,28.006z M85.396,27.525    c-0.006,0.151-0.012,0.312-0.017,0.481c-0.017,0.863-0.05,1.961-0.078,3.242c-0.674-0.009-1.36-0.017-2.071-0.026    c-1.301-0.009-2.67-0.018-4.086-0.027c-0.029-1.259-0.063-2.337-0.078-3.189c-0.006-0.169-0.012-0.33-0.016-0.481H85.396z     M85.295,31.571c-0.016,0.657-0.027,1.353-0.036,2.093c-0.012,0.977-0.028,2.034-0.047,3.132    c-0.646-0.008-1.301-0.016-1.981-0.024c-1.272-0.009-2.61-0.018-3.996-0.027c-0.018-1.079-0.033-2.12-0.045-3.081    c-0.01-0.721-0.021-1.399-0.035-2.04c1.412-0.009,2.779-0.019,4.076-0.027C83.939,31.588,84.624,31.58,85.295,31.571z     M78.952,27.525c-0.007,0.151-0.011,0.312-0.017,0.481c-0.018,0.851-0.049,1.929-0.076,3.188c-1.963-0.013-4.022-0.026-6.161-0.04    c-0.028-1.241-0.06-2.306-0.077-3.147c-0.005-0.169-0.01-0.33-0.014-0.481L78.952,27.525L78.952,27.525z M72.507,27.525    c-0.005,0.151-0.011,0.312-0.016,0.481c-0.017,0.841-0.048,1.906-0.076,3.146c-1.522-0.01-3.078-0.021-4.667-0.031    c-0.49-0.001-0.999-0.002-1.496-0.004c-0.027-1.224-0.059-2.277-0.074-3.111c-0.006-0.169-0.012-0.33-0.016-0.481H72.507z     M66.063,27.525c-0.006,0.151-0.011,0.312-0.016,0.481c-0.016,0.833-0.047,1.886-0.074,3.11c-2.021-0.005-4.076-0.01-6.164-0.015    c-0.029-1.217-0.06-2.266-0.076-3.095c-0.006-0.169-0.01-0.33-0.015-0.481H66.063z M65.958,31.703    c-0.013,0.618-0.024,1.271-0.033,1.961c-0.011,0.938-0.026,1.952-0.045,3.002c-1.962-0.005-3.955-0.01-5.981-0.015    c-0.017-1.045-0.031-2.054-0.043-2.987c-0.008-0.686-0.021-1.332-0.032-1.946C61.9,31.713,63.945,31.708,65.958,31.703z     M59.616,27.525c-0.005,0.151-0.009,0.312-0.015,0.481c-0.017,0.83-0.047,1.877-0.076,3.095c-2.035-0.005-4.094-0.01-6.162-0.015    c-0.029-1.211-0.059-2.254-0.076-3.08c-0.005-0.169-0.01-0.33-0.014-0.481H59.616z M59.514,31.719    c-0.013,0.613-0.023,1.26-0.033,1.945c-0.01,0.933-0.027,1.942-0.045,2.986c-1.977-0.005-3.975-0.011-5.98-0.016    c-0.018-1.038-0.033-2.042-0.045-2.971c-0.008-0.679-0.02-1.322-0.032-1.93C55.438,31.729,57.486,31.724,59.514,31.719z     M53.173,27.525c-0.005,0.151-0.011,0.312-0.016,0.481c-0.017,0.826-0.048,1.868-0.074,3.079    c-1.026-0.003-2.054-0.005-3.083-0.008c-1.029,0.002-2.056,0.005-3.083,0.008c-0.028-1.21-0.059-2.253-0.075-3.079    c-0.005-0.169-0.01-0.33-0.014-0.481H53.173z M53.068,31.735c-0.014,0.609-0.024,1.25-0.033,1.929    c-0.012,0.928-0.027,1.931-0.044,2.97c-0.997-0.002-1.993-0.004-2.991-0.007c-0.999,0.002-1.995,0.004-2.991,0.007    c-0.017-1.039-0.033-2.042-0.044-2.97c-0.008-0.679-0.02-1.32-0.032-1.929c1.022,0.003,2.043,0.005,3.068,0.007    C51.023,31.74,52.047,31.738,53.068,31.735z M46.728,27.525c-0.005,0.151-0.01,0.312-0.016,0.481    c-0.016,0.826-0.046,1.869-0.074,3.08c-2.069,0.005-4.128,0.01-6.165,0.015c-0.029-1.217-0.059-2.265-0.076-3.095    c-0.005-0.169-0.009-0.33-0.014-0.481H46.728z M40.625,42.199c0-0.177-0.001-0.36-0.003-0.536c-0.005-1.53-0.026-3-0.047-4.395    c1.971,0.005,3.96,0.01,5.962,0.016c-0.022,1.39-0.042,2.856-0.048,4.379c0,0.171-0.001,0.348-0.002,0.521    C44.52,42.189,42.563,42.195,40.625,42.199z M46.484,42.832c-0.008,1.597-0.016,3.237-0.023,4.902    c-1.949,0.004-3.889,0.009-5.809,0.014c-0.009-1.674-0.017-3.324-0.023-4.931C42.563,42.823,44.519,42.827,46.484,42.832z     M40.564,36.65c-0.017-1.044-0.033-2.054-0.044-2.986c-0.007-0.686-0.019-1.332-0.032-1.945c2.028,0.004,4.076,0.01,6.136,0.015    c-0.013,0.608-0.024,1.251-0.034,1.93c-0.01,0.929-0.027,1.933-0.044,2.971C44.539,36.64,42.542,36.645,40.564,36.65z     M33.953,28.006c-0.005-0.169-0.01-0.33-0.014-0.481h6.343c-0.004,0.151-0.009,0.312-0.014,0.481    c-0.016,0.83-0.047,1.878-0.076,3.095c-2.087,0.005-4.143,0.01-6.164,0.016C34.001,29.893,33.97,28.84,33.953,28.006z     M40.013,53.3c-1.965,0.005-3.899,0.009-5.804,0.015c0.004-0.824,0.008-1.652,0.012-2.481c-0.004-0.829-0.008-1.656-0.012-2.482    c1.904,0.005,3.838,0.011,5.804,0.015c-0.004,0.821-0.008,1.644-0.012,2.467C40.005,51.655,40.009,52.479,40.013,53.3z     M34.207,47.764c-0.009-1.686-0.017-3.347-0.025-4.962c1.922,0.004,3.874,0.009,5.857,0.014c-0.008,1.606-0.016,3.258-0.023,4.934    C38.049,47.755,36.114,47.76,34.207,47.764z M34.18,42.216c0-0.184-0.001-0.371-0.002-0.553c-0.005-1.535-0.026-3.011-0.047-4.411    c1.956,0.005,3.942,0.01,5.962,0.015c-0.022,1.395-0.042,2.866-0.048,4.396c0,0.177-0.001,0.36-0.003,0.537    C38.057,42.205,36.104,42.21,34.18,42.216z M40.043,59.465c0,0.178,0.001,0.36,0.002,0.537c0.007,1.529,0.026,3.001,0.048,4.396    c-2.021,0.004-4.009,0.01-5.965,0.014c0.021-1.398,0.042-2.875,0.048-4.41c0-0.182,0.001-0.369,0.002-0.552    C36.104,59.454,38.057,59.46,40.043,59.465z M34.12,36.666c-0.016-1.05-0.032-2.064-0.044-3.002    c-0.008-0.691-0.021-1.343-0.034-1.961c2.013,0.005,4.058,0.01,6.138,0.016c-0.013,0.613-0.025,1.26-0.034,1.946    c-0.01,0.933-0.027,1.942-0.044,2.987C38.076,36.656,36.083,36.661,34.12,36.666z M34.042,69.962    c0.013-0.617,0.024-1.271,0.034-1.961c0.01-0.938,0.027-1.951,0.044-3.002c1.963,0.005,3.957,0.011,5.983,0.017    c0.017,1.043,0.033,2.053,0.044,2.985c0.008,0.687,0.021,1.333,0.034,1.947C38.1,69.953,36.054,69.958,34.042,69.962z     M53.376,69.932c0.013-0.608,0.024-1.252,0.033-1.931c0.011-0.929,0.026-1.933,0.043-2.971c2.009-0.005,4.007-0.011,5.983-0.015    c0.019,1.043,0.033,2.053,0.045,2.984c0.008,0.686,0.021,1.332,0.033,1.945C57.486,69.941,55.438,69.938,53.376,69.932z     M59.82,69.945c0.014-0.611,0.025-1.26,0.033-1.944c0.01-0.933,0.027-1.942,0.043-2.985c2.027-0.006,4.021-0.012,5.984-0.017    c0.018,1.051,0.032,2.063,0.044,3.002c0.009,0.69,0.021,1.344,0.034,1.961C63.945,69.957,61.9,69.952,59.82,69.945z     M59.907,64.398c0.021-1.396,0.042-2.867,0.049-4.396c0-0.177,0.001-0.359,0.002-0.537c1.985-0.005,3.938-0.011,5.862-0.015    c0,0.183,0.003,0.37,0.004,0.552c0.007,1.535,0.025,3.012,0.048,4.41C63.915,64.408,61.928,64.402,59.907,64.398z M67.748,69.966    c-0.486-0.001-0.991-0.002-1.482-0.002c0.014-0.619,0.024-1.271,0.033-1.963c0.012-0.938,0.027-1.952,0.044-3.003    c0.466-0.002,0.943-0.002,1.405-0.003c1.559-0.011,3.084-0.021,4.577-0.03c0.017,1.063,0.032,2.09,0.045,3.036    c0.01,0.705,0.021,1.368,0.034,1.996C70.887,69.986,69.335,69.977,67.748,69.966z M67.748,59.445    c1.537-0.012,3.043-0.021,4.52-0.03c0,0.194,0,0.396,0.002,0.587c0.006,1.548,0.025,3.036,0.049,4.445    c-1.491-0.01-3.014-0.021-4.569-0.029c-0.458-0.002-0.933-0.003-1.396-0.004c0.021-1.398,0.041-2.876,0.047-4.412    c0-0.182,0.002-0.371,0.004-0.553C66.85,59.448,67.307,59.445,67.748,59.445z M66.404,58.865c0.009-1.618,0.017-3.28,0.023-4.967    c0.438,0,0.887-0.002,1.319-0.004c1.528-0.009,3.024-0.02,4.491-0.027c0.008,1.709,0.016,3.393,0.023,5.029    c-1.474-0.01-2.979-0.02-4.516-0.028C67.307,58.866,66.852,58.865,66.404,58.865z M72.709,69.999    c0.014-0.629,0.025-1.293,0.035-1.998c0.01-0.948,0.027-1.976,0.044-3.04c2.073-0.013,4.073-0.025,5.981-0.039    c0.017,1.079,0.033,2.119,0.045,3.079c0.01,0.722,0.021,1.397,0.035,2.038C76.895,70.025,74.841,70.014,72.709,69.999z     M72.878,48.313c2.009-0.013,3.95-0.026,5.804-0.038c-0.004,0.849-0.008,1.703-0.012,2.557c0.004,0.854,0.008,1.708,0.012,2.557    c-1.854-0.012-3.795-0.023-5.806-0.037c0.006-0.838,0.011-1.679,0.015-2.52C72.887,49.991,72.882,49.151,72.878,48.313z     M78.684,53.824c0.008,1.738,0.018,3.451,0.024,5.115c-1.87-0.013-3.829-0.024-5.856-0.039c0.008-1.64,0.016-3.326,0.023-5.037    C74.887,53.85,76.829,53.837,78.684,53.824z M78.71,59.374c0.001,0.208,0.002,0.421,0.004,0.628    c0.007,1.563,0.027,3.064,0.05,4.487c-1.902-0.013-3.897-0.024-5.968-0.039c0.021-1.41,0.043-2.899,0.05-4.448    c0-0.193,0.002-0.395,0.002-0.591C74.879,59.398,76.84,59.386,78.71,59.374z M83.23,70.066c-1.299-0.008-2.666-0.017-4.078-0.024    c0.014-0.642,0.027-1.319,0.035-2.041c0.012-0.961,0.028-2.002,0.047-3.081c1.384-0.01,2.723-0.02,3.996-0.025    c0.681-0.01,1.336-0.018,1.981-0.024c0.019,1.098,0.035,2.155,0.047,3.132c0.009,0.74,0.022,1.438,0.036,2.093    C84.625,70.086,83.941,70.077,83.23,70.066z M79.32,48.271c1.354-0.009,2.662-0.018,3.91-0.026    c0.648-0.008,1.278-0.016,1.896-0.023c-0.004,0.867-0.008,1.739-0.013,2.61c0.005,0.873,0.009,1.743,0.013,2.609    c-0.616-0.006-1.246-0.014-1.896-0.022c-1.248-0.008-2.557-0.017-3.91-0.024c0.005-0.852,0.01-1.705,0.014-2.562    C79.33,49.977,79.325,49.122,79.32,48.271z M83.23,53.794c0.648-0.008,1.279-0.017,1.897-0.022    c0.009,1.774,0.017,3.523,0.024,5.222c-0.627-0.009-1.266-0.017-1.924-0.023c-1.254-0.007-2.571-0.017-3.936-0.024    c0.008-1.666,0.016-3.383,0.023-5.123C80.674,53.811,81.982,53.803,83.23,53.794z M83.23,59.344    c0.66-0.008,1.299-0.016,1.924-0.023c0,0.228,0.003,0.459,0.004,0.683c0.007,1.584,0.027,3.104,0.05,4.542    c-0.644-0.008-1.298-0.018-1.978-0.023c-1.271-0.011-2.608-0.019-3.99-0.026c0.021-1.425,0.043-2.927,0.05-4.491    c0.001-0.208,0.001-0.423,0.002-0.632C80.657,59.359,81.975,59.352,83.23,59.344z M85.596,70.098    c0.014-0.656,0.027-1.354,0.037-2.097c0.012-0.979,0.029-2.038,0.047-3.14c2.242-0.026,4.254-0.051,5.978-0.073    c0.019,1.128,0.036,2.213,0.048,3.213c0.01,0.771,0.023,1.493,0.038,2.172C89.979,70.152,87.909,70.126,85.596,70.098z     M91.572,53.523c-1.684-0.021-3.635-0.047-5.807-0.071c0.004-0.872,0.008-1.744,0.012-2.62c-0.004-0.874-0.008-1.748-0.012-2.618    c2.172-0.027,4.123-0.052,5.807-0.073c-0.006,0.895-0.01,1.792-0.014,2.691C91.563,51.73,91.566,52.629,91.572,53.523z     M85.766,47.902c-0.009-1.78-0.019-3.535-0.024-5.237c2.192-0.027,4.163-0.051,5.856-0.073c-0.009,1.75-0.017,3.552-0.024,5.382    C89.889,47.953,87.938,47.929,85.766,47.902z M85.766,53.764c2.172-0.027,4.123-0.052,5.808-0.072    c0.009,1.83,0.018,3.635,0.024,5.383c-1.693-0.021-3.664-0.047-5.859-0.073C85.747,57.298,85.755,55.543,85.766,53.764z     M91.6,59.24c0.002,0.253,0.002,0.512,0.004,0.762c0.006,1.614,0.028,3.159,0.051,4.621c-1.723-0.021-3.729-0.046-5.971-0.074    c0.022-1.439,0.045-2.96,0.051-4.547c0.002-0.227,0.002-0.46,0.004-0.689C87.934,59.285,89.902,59.262,91.6,59.24z M96.67,70.234    c-1.079-0.015-2.654-0.033-4.631-0.059c0.014-0.68,0.027-1.404,0.039-2.176c0.012-1.003,0.029-2.088,0.047-3.218    c1.938-0.023,3.48-0.043,4.545-0.056V70.234z M96.67,64.686c-1.063-0.013-2.605-0.031-4.543-0.056    c0.023-1.465,0.045-3.013,0.053-4.628c0.002-0.252,0.002-0.514,0.004-0.77c1.909-0.022,3.435-0.043,4.486-0.056V64.686z     M96.67,59.136c-1.053-0.013-2.576-0.03-4.486-0.056c0.01-1.752,0.018-3.563,0.025-5.396c1.896-0.022,3.412-0.043,4.461-0.056    V59.136z M96.67,53.586c-1.048-0.013-2.563-0.031-4.459-0.055c0.003-0.897,0.007-1.799,0.014-2.699    c-0.007-0.901-0.011-1.801-0.014-2.699c1.896-0.023,3.411-0.042,4.459-0.055V53.586z M96.67,48.037    c-1.049-0.013-2.563-0.032-4.461-0.056c-0.008-1.835-0.018-3.643-0.023-5.396c1.908-0.023,3.433-0.043,4.484-0.056V48.037z     M96.67,31.389c-0.15-0.002-0.314-0.004-0.484-0.006c0.004,0.018,0.008,0.035,0.01,0.053c0.168-0.002,0.326-0.004,0.476-0.006    v5.508c-0.854-0.011-2.021-0.025-3.444-0.043c-0.115,0.047-0.229,0.092-0.348,0.132c1.587-0.02,2.869-0.036,3.792-0.047v5.507    c-1.053-0.013-2.575-0.031-4.485-0.056c-0.002-0.255-0.004-0.517-0.004-0.769c-0.006-1.555-0.025-3.04-0.05-4.454    c-0.159,0.027-0.319,0.046-0.481,0.058c-0.021,1.397-0.041,2.862-0.047,4.396c-0.002,0.25-0.002,0.508-0.004,0.762    c-1.582-0.019-3.414-0.042-5.435-0.067l-1.013,0.539c-0.008,1.628-0.016,3.3-0.024,4.998c-0.616-0.008-1.247-0.016-1.896-0.023    c-1.248-0.007-2.558-0.017-3.912-0.026c-0.002-0.62-0.006-1.233-0.008-1.846l-0.396,0.211c-0.082,0.039-0.153,0.067-0.226,0.095    c-0.002,0.511-0.006,1.02-0.008,1.536c-1.705-0.012-3.494-0.023-5.334-0.035l-1.854,0.517c0.246-0.001,0.497-0.003,0.74-0.005    c-0.004,0.836-0.008,1.675-0.012,2.516c0.004,0.84,0.008,1.68,0.012,2.516c-1.465-0.01-2.961-0.021-4.487-0.029    c-0.433,0-0.879-0.002-1.315-0.004c0.004-0.825,0.008-1.653,0.012-2.482c0-0.029,0-0.061,0-0.09l-0.661,0.434    c0.002,0.713,0.006,1.428,0.01,2.139c-1.078-0.004-2.166-0.008-3.263-0.01l-0.926,0.605c1.41-0.003,2.812-0.008,4.189-0.012    c0.008,1.687,0.016,3.348,0.023,4.963c-1.922-0.004-3.873-0.01-5.856-0.014c0.006-1.275,0.013-2.584,0.019-3.906l-0.623,0.537    c0.006,1.138,0.012,2.266,0.018,3.367c-1.291-0.003-2.602-0.007-3.908-0.011l-0.74,0.64c1.558-0.002,3.113-0.007,4.652-0.011    c0,0.177,0.001,0.36,0.003,0.536c0.007,1.529,0.025,3.001,0.048,4.395c-1.972-0.004-3.963-0.008-5.965-0.014    c0.02-1.229,0.036-2.523,0.044-3.855l-0.563,0.486c0.01,1.158,0.022,2.291,0.039,3.367c-0.993-0.002-1.986-0.005-2.981-0.008    c-0.041,0-0.083,0-0.124,0l-0.592,0.664c0.239,0,0.477,0.001,0.716,0.001c0.999-0.003,1.996-0.004,2.992-0.007    c0.017,1.037,0.032,2.042,0.044,2.97c0.008,0.679,0.02,1.321,0.033,1.931c-1.022-0.003-2.045-0.006-3.069-0.009    c-1.025,0.003-2.047,0.006-3.069,0.009c0.013-0.608,0.025-1.252,0.034-1.931c0.001-0.12,0.004-0.25,0.005-0.372l-0.377,0.423    c0.008,0.66,0.019,1.286,0.032,1.88c-2.06,0.006-4.108,0.01-6.138,0.016c0.013-0.613,0.025-1.26,0.034-1.945    c0.008-0.7,0.02-1.449,0.031-2.217l-0.143-0.128l0.148-0.166c0.002-0.159,0.005-0.313,0.007-0.476c0.138,0,0.279,0,0.417,0    l0.555-0.621c-0.319,0.002-0.644,0.002-0.961,0.002c0.021-1.394,0.042-2.864,0.048-4.395c0-0.176,0.001-0.359,0.003-0.536    c0.251,0,0.508,0.002,0.76,0.002l-0.635-0.62c-0.041,0-0.083,0-0.123,0c0-0.039,0-0.08,0-0.119l-0.592-0.58    c0.001,0.232,0.002,0.471,0.003,0.701c-1.982,0.004-3.935,0.01-5.857,0.016c0.008-1.617,0.016-3.278,0.023-4.965    c1.908,0.007,3.843,0.011,5.81,0.016c0.005,1.116,0.01,2.214,0.016,3.301l0.606-0.619c0.004-0.886,0.008-1.777,0.013-2.681    c0.859,0.003,1.733,0.006,2.599,0.007l0.619-0.632c-1.073,0.002-2.152,0.005-3.214,0.008c0.004-0.821,0.008-1.644,0.012-2.466    c-0.004-0.823-0.008-1.646-0.012-2.465c1.918,0.004,3.856,0.009,5.803,0.014c-0.003,0.777-0.007,1.557-0.011,2.336    c0.205-0.148,0.426-0.274,0.662-0.371c-0.003-0.655-0.006-1.311-0.009-1.964c0.966,0.002,1.933,0.005,2.901,0.006    c0.957-0.001,1.913-0.004,2.87-0.006l1.906-0.646c-0.413-0.001-0.821-0.001-1.236-0.002c-0.005-1.063-0.01-2.11-0.016-3.147    l-0.604-0.025c-0.005,1.044-0.011,2.101-0.015,3.171c-0.971-0.005-1.938-0.007-2.908-0.01c-0.97,0.002-1.937,0.005-2.905,0.008    c-0.008-1.664-0.016-3.304-0.022-4.899c0.6,0.001,1.199,0.002,1.799,0.005l-0.01-0.661c-0.598,0.001-1.195,0.004-1.793,0.005    c0-0.172-0.001-0.35-0.002-0.52c-0.005-1.523-0.025-2.989-0.047-4.378c0.994,0.003,1.986,0.005,2.981,0.007    c0.995-0.002,1.987-0.004,2.979-0.007c-0.013,0.833-0.022,1.7-0.031,2.582l0.549-0.038c-0.01-0.87-0.02-1.724-0.033-2.545    c2.001-0.005,3.992-0.01,5.963-0.015c-0.012,0.712-0.021,1.445-0.031,2.195c0.063,0.005,0.121,0.004,0.183,0.013l0.362,0.06    c-0.01-0.775-0.021-1.534-0.03-2.269c2.019-0.005,4.006-0.01,5.962-0.015c-0.018,1.038-0.029,2.129-0.038,3.244l0.56,0.092    c-0.01-1.148-0.021-2.271-0.039-3.337c0.463-0.001,0.938-0.002,1.396-0.003c0.058-0.001,0.112-0.001,0.171-0.001    c0.036-0.194,0.085-0.386,0.145-0.574c-0.105,0-0.209-0.001-0.314-0.002c-0.461,0-0.938-0.002-1.404-0.003    c-0.017-1.051-0.033-2.065-0.045-3.003c-0.008-0.691-0.021-1.344-0.033-1.962c0.492,0,0.996-0.002,1.482-0.003    c1.585-0.01,3.139-0.021,4.656-0.031c-0.012,0.484-0.021,0.998-0.028,1.527c0.12-0.01,0.239-0.018,0.36-0.021    c-0.008-0.521-0.018-1.03-0.026-1.509c2.132-0.014,4.185-0.027,6.14-0.04c-0.014,0.641-0.025,1.319-0.035,2.038    c-0.01,0.96-0.028,2-0.045,3.079c-0.39-0.003-0.797-0.005-1.192-0.008c0.045,0.148,0.082,0.297,0.112,0.448    c0.355-0.002,0.724-0.004,1.072-0.007c-0.017,1.067-0.029,2.19-0.039,3.34l0.557-0.222c-0.01-1.071-0.021-2.122-0.036-3.121    c1.381-0.009,2.717-0.018,3.987-0.026c0.679-0.009,1.334-0.017,1.977-0.024c-0.004,0.266-0.007,0.548-0.011,0.82l0.497-0.198    c-0.002-0.208-0.004-0.425-0.008-0.628c1.502-0.018,2.891-0.035,4.168-0.051c-0.198-0.06-0.39-0.135-0.576-0.218    c-1.119-0.014-2.314-0.029-3.598-0.044c-0.017-1.1-0.035-2.16-0.047-3.138c-0.009-0.742-0.021-1.438-0.035-2.096    c0.266-0.003,0.516-0.006,0.773-0.01c0.016-0.1,0.038-0.198,0.061-0.296c-0.281-0.003-0.554-0.007-0.842-0.01    c-0.029-1.283-0.063-2.382-0.078-3.246c-0.006-0.169-0.012-0.33-0.016-0.481h4.441c0.055-0.015,0.105-0.035,0.16-0.048    c0.396-0.098,0.799-0.148,1.203-0.148c0.459,0,0.901,0.078,1.328,0.196h4.04v3.86H96.67z"/>
	</g>
</g>
</svg>