<?xml version="1.0" encoding="utf-8"?>
<!-- Generator: Adobe Illustrator 15.1.0, SVG Export Plug-In . SVG Version: 6.00 Build 0)  -->
<!DOCTYPE svg PUBLIC "-//W3C//DTD SVG 1.1//EN" "http://www.w3.org/Graphics/SVG/1.1/DTD/svg11.dtd">
<svg version="1.1" id="Layer_1" xmlns="http://www.w3.org/2000/svg" xmlns:xlink="http://www.w3.org/1999/xlink" x="0px" y="0px"
	 width="100px" height="48.029px" viewBox="0 0 100 48.029" enable-background="new 0 0 100 48.029" xml:space="preserve">
<path fill="#010101" d="M74.844,0c-0.202,0-0.4,0.004-0.594,0.012c-13.093,0.48-21.821,5.191-25.901,17.601l4.303-0.175l3.622-3.34
	l0.014-0.011c-0.63-0.869-1.008-1.928-1.008-3.072c0-2.89,2.383-5.269,5.271-5.269c2.445,0,4.522,1.708,5.104,3.984l0.811-0.345
	l2.098-0.889V8.493c0.002-0.001,0.004,0,0.006,0c0.045-0.02,0.092-0.037,0.138-0.054c0.001,0,0.002-0.002,0.003-0.003
	c0.046-0.017,0.092-0.031,0.139-0.045c0.027-0.008,0.055-0.018,0.082-0.025c0.042-0.012,0.086-0.021,0.129-0.031
	c0.027-0.006,0.053-0.011,0.08-0.017c0.002,0,0.003-0.002,0.005-0.003l0.003-0.003h0.003c0.003,0.001,0.005,0.002,0.009,0.003
	c0.188-0.036,0.379-0.056,0.572-0.054l8.702,0.082h0.003c0.73,0.006,1.422,0.284,1.956,0.782l4.486,4.193
	c0.566,0.529,0.895,1.25,0.921,2.024c0.025,0.774-0.254,1.515-0.782,2.081c-0.529,0.566-1.25,0.895-2.024,0.92
	c-0.774,0.026-1.515-0.253-2.081-0.782l-3.661-3.422l-4.854-0.189l1.024,1.957l4.848,0.791h0.003h0.003
	c0.497,0.085,0.96,0.296,1.35,0.616c0.001,0,0.001,0.002,0.003,0.003l7.217,5.898l3.701,2.053l7.928,0.686h0.003
	c0.048,0.004,0.097,0.011,0.144,0.018c0.013,0.002,0.025,0.004,0.037,0.006c0.035,0.005,0.069,0.01,0.104,0.017
	c0.024,0.005,0.049,0.009,0.073,0.015c1.086-3.858-1.48-7.475-10.339-7.815c2.249-2.621,3.034-5.375,3.019-8.001
	C91.471,3.145,81.102-0.015,74.844,0L74.844,0z"/>
<path fill="#010101" d="M60.552,6.875c-2.267,0-4.142,1.873-4.142,4.139c0,2.266,1.875,4.142,4.142,4.142s4.142-1.875,4.142-4.142
	C64.693,8.748,62.818,6.875,60.552,6.875z"/>
<path fill="#010101" d="M69.629,9.371c-0.08,0.002-0.166,0.017-0.263,0.051c-0.003,0-0.006,0.002-0.009,0.003
	c-0.027,0.006-0.055,0.01-0.082,0.017c-0.002,0-0.004,0.002-0.006,0.003c-0.029,0.008-0.059,0.017-0.087,0.025
	c-0.019,0.006-0.038,0.011-0.057,0.017C69.087,9.5,69.049,9.516,69.01,9.532l-3.189,1.355c0,0.042,0.002,0.084,0.002,0.127
	c0,2.89-2.381,5.271-5.271,5.271c-1.344,0-2.577-0.517-3.513-1.358l-3.928,3.622L42.92,18.965c-0.475,0.004-0.946,0.207-1.273,0.551
	c-0.328,0.343-0.508,0.821-0.488,1.296c0.019,0.474,0.238,0.938,0.593,1.253c0.354,0.316,0.839,0.481,1.313,0.446l10.844-0.44
	c0.416-0.017,0.826-0.186,1.133-0.468l4.576-4.227l0.133-0.057L62.254,21c0.124,0.182,0.281,0.341,0.463,0.466l7.598,5.2
	c0.197,0.136,0.423,0.23,0.658,0.277l11.832,2.34c0.064,0.014,0.128,0.023,0.192,0.029l15.073,1.304
	c0.464,0.04,0.94-0.11,1.297-0.409c0.355-0.299,0.586-0.742,0.627-1.205c0.039-0.464-0.111-0.94-0.41-1.297
	c-0.299-0.355-0.742-0.586-1.205-0.627l-14.992-1.295l-6.709-1.782l1.034-0.943l5.813,1.601l4.26,0.37l-1.575-0.875l-7.298-5.966
	c-0.237-0.195-0.525-0.327-0.828-0.378l-5.4-0.884l-2.163-4.122l7.181,0.212l3.982,3.721c0.34,0.317,0.809,0.493,1.273,0.477
	s0.92-0.222,1.237-0.562c0.317-0.339,0.493-0.809,0.478-1.273c-0.016-0.464-0.223-0.919-0.562-1.236L79.623,9.95
	c-0.321-0.3-0.758-0.474-1.197-0.477l-8.631-0.082h-0.002C69.742,9.376,69.688,9.37,69.629,9.371L69.629,9.371z"/>
<path fill="#010101" d="M11.519,15.105c-2.266,0-4.142,1.875-4.142,4.142c0,2.266,1.875,4.142,4.142,4.142
	c2.267,0,4.142-1.875,4.142-4.142C15.661,16.98,13.785,15.105,11.519,15.105z"/>
<path fill="#010101" d="M59.523,18.996l-3.718,3.436c-0.509,0.47-1.16,0.74-1.853,0.768l-6.812,0.276
	c0.122,7.425,8.572,11.485,13.555,6.528c7.131,8.878,20.518,6.764,26.87,5.197c1.843-0.455,3.573-1.193,5.107-2.115l-3.856-2.134
	L82.9,30.438h-0.002l-0.003-0.002c-0.104-0.01-0.208-0.025-0.311-0.045h-0.006l-11.827-2.342c-0.144-0.028-0.286-0.068-0.423-0.118
	c-0.001,0-0.003,0.001-0.003,0c-0.229-0.083-0.446-0.194-0.649-0.333l-7.598-5.201h-0.003c-0.074-0.051-0.146-0.106-0.215-0.164
	c0,0-0.002,0-0.002,0c-0.069-0.058-0.135-0.117-0.198-0.181c-0.063-0.064-0.124-0.131-0.181-0.201s-0.109-0.143-0.16-0.217
	L59.523,18.996L59.523,18.996z"/>
<path fill="#010101" d="M36.629,19.306c-0.159,0-0.318,0.021-0.472,0.062l-11.779,3.029l-8.317,0.443l-0.678-0.031
	c-0.966,1.046-2.344,1.708-3.865,1.708c-1.688,0-3.202-0.814-4.17-2.067c-1,0.056-2.174-0.22-3.072-0.234
	c-0.615-0.004-1.221,0.338-1.536,0.867c-0.177,0.259-0.288,0.563-0.311,0.875l-0.206,2.772l-0.22,2.968l-1.736,2.872
	c-0.248,0.396-0.329,0.896-0.22,1.352s0.406,0.864,0.808,1.107c0.401,0.242,0.9,0.314,1.355,0.199s0.858-0.416,1.096-0.82
	l1.186-1.963l-1.16-2.928l0.514-1.765l1.771,4.458c0.084,0.213,0.209,0.408,0.367,0.573l6.246,6.522
	c0.26,0.271,0.608,0.457,0.979,0.521l13.216,2.29l12.857,5.739c0.426,0.203,0.933,0.227,1.375,0.062
	c0.442-0.163,0.816-0.512,1.008-0.943c0.192-0.43,0.201-0.936,0.028-1.375c-0.173-0.438-0.528-0.803-0.962-0.984L27.66,38.784
	c-0.134-0.059-0.276-0.102-0.421-0.127l-9.057-1.569l0.632-0.687c0.237-0.031,0.466-0.112,0.672-0.234
	c0.039-0.022,0.076-0.047,0.113-0.072c0.001-0.002,0.004-0.002,0.005-0.004c0.034-0.023,0.067-0.047,0.099-0.073l4.263-3.476
	l-1.189,4.195l3.518,0.61l2.623-9.255c0.102-0.36,0.085-0.754-0.045-1.104c-0.13-0.352-0.376-0.658-0.689-0.864
	c-0.312-0.206-0.69-0.308-1.064-0.288c-0.374,0.02-0.74,0.159-1.03,0.395l-7.321,5.967c-0.123-0.01-0.246-0.006-0.367,0.011
	l-1.488-1.202l0.661-4.689l7.168-0.382c0.117-0.006,0.233-0.024,0.347-0.054l11.951-3.075c0.417-0.101,0.794-0.359,1.039-0.711
	c0.245-0.352,0.355-0.796,0.305-1.222c-0.05-0.426-0.261-0.83-0.582-1.115C37.484,19.472,37.059,19.308,36.629,19.306L36.629,19.306
	z"/>
<path fill="#010101" d="M91.58,31.19l2.852,1.58c0.475,0.278,1.08,0.316,1.587,0.102c0.507-0.213,0.901-0.674,1.033-1.207
	L91.58,31.19L91.58,31.19z"/>
</svg>
