<svg xmlns="http://www.w3.org/2000/svg" xmlns:xlink="http://www.w3.org/1999/xlink" version="1.1" id="Capa_1" x="0px" y="0px" width="100px" height="100px" viewBox="0 0 100 100" enable-background="new 0 0 100 100" xml:space="preserve">
<g id="Capa_32">
	<g>
		<path d="M60.077,18.742c5.141,0.806,9.964-2.706,10.769-7.853c0.813-5.141-2.707-9.966-7.849-10.774    c-5.159-0.804-9.983,2.715-10.784,7.859C51.409,13.117,54.921,17.935,60.077,18.742z"/>
		<path d="M55.398,56.45c0.1-0.244,0.211-0.478,0.287-0.733l4.441-14.711l1.709,4.229c0.389,0.961,1.137,1.731,2.082,2.15    l19.604,5.348l1.767-5.294l-16.661-6.69l-5.581-13.804c-0.718-2.527-2.651-4.653-5.354-5.469c-0.242-0.074-0.485-0.094-0.73-0.143    l0.001-0.008l-0.487-0.088c-0.133-0.018-0.266-0.06-0.396-0.072l-17.879-3.222c-0.688-0.125-1.401-0.065-2.061,0.172L17.99,25.928    l1.896,5.252l17.951-5.2l9.638,1.736l-7.063,23.39l-8.743,14.855L8.723,66.67l0.308,9.964l25.593-0.788    c1.656-0.05,3.177-0.921,4.061-2.322l7.756-12.283l11.167,13.729L50.833,97.08l9.533,2.92l7.553-24.656    c0.485-1.59,0.149-3.316-0.899-4.604L55.398,56.45z"/>
		<path d="M90.995,87.77c-1.25-5.052-6.366-8.133-11.418-6.879c-5.065,1.264-8.144,6.379-6.884,11.432    c1.257,5.052,6.363,8.129,11.428,6.865C89.175,97.934,92.252,92.823,90.995,87.77z"/>
	</g>
</g>
</svg>