<svg xmlns="http://www.w3.org/2000/svg" xmlns:xlink="http://www.w3.org/1999/xlink" version="1.1" id="Calque_1" x="0px" y="0px" width="100px" height="100px" viewBox="0 0 100 100" enable-background="new 0 0 100 100" xml:space="preserve">
<g>
	<path d="M16.175,32.652c0.183,0,0.367-0.059,0.522-0.18c4.715-3.684,17.699-6.063,33.077-6.063c0.069,0,0.135-0.011,0.199-0.026   c0.064,0.015,0.13,0.026,0.199,0.026c15.379,0,28.362,2.38,33.077,6.063c0.154,0.122,0.339,0.18,0.521,0.18   c0.252,0,0.501-0.112,0.669-0.326c0.288-0.37,0.223-0.902-0.146-1.191c-5.071-3.962-18.146-6.423-34.121-6.423   c-0.069,0-0.135,0.01-0.199,0.026c-0.064-0.016-0.13-0.026-0.199-0.026c-15.975,0-29.049,2.461-34.122,6.423   c-0.369,0.289-0.435,0.821-0.146,1.19C15.673,32.54,15.923,32.652,16.175,32.652z"/>
	<path d="M99.086,62.819l0.003-1.667c0.018-14.417,0.034-26.868-11.46-34.295c-1.273-0.933-2.973-1.81-5.009-2.593   c-7.502-3.105-18.175-4.615-32.649-4.617c-14.5,0-25.199,1.519-32.666,4.625c-2.033,0.787-3.7,1.648-4.954,2.562   C0.822,34.258,0.837,46.723,0.856,61.151l0.002,1.814c0,10.975,25.306,16.897,49.116,16.897c23.811,0,49.118-5.923,49.118-16.897   C99.092,62.917,99.09,62.868,99.086,62.819z M93.503,66.587v-5.976c0-0.357-0.199-0.686-0.516-0.852   c-0.317-0.166-0.7-0.143-0.994,0.062c-0.657,0.456-1.396,0.906-2.2,1.338c-0.312,0.167-0.507,0.493-0.507,0.847v7.37   c-0.817,0.413-1.713,0.817-2.677,1.209v-6.528c0-0.315-0.155-0.611-0.414-0.791c-0.259-0.179-0.589-0.22-0.885-0.11   c-1.208,0.452-2.509,0.884-3.867,1.282c-0.41,0.12-0.691,0.495-0.691,0.923v7.198c-0.951,0.267-1.938,0.524-2.968,0.769V66.61   c0-0.291-0.133-0.567-0.36-0.75s-0.527-0.252-0.81-0.188c-1.761,0.391-3.616,0.743-5.515,1.048c-0.466,0.074-0.81,0.476-0.81,0.948   v7.108c-1.057,0.163-2.148,0.312-3.258,0.449v-6.854c0-0.274-0.117-0.535-0.321-0.717c-0.204-0.183-0.479-0.27-0.749-0.238   c-2.323,0.264-4.729,0.467-7.154,0.604c-0.509,0.029-0.906,0.451-0.906,0.96v7.05c-0.913,0.049-1.836,0.092-2.772,0.124v-7.032   c0-0.261-0.105-0.511-0.293-0.691c-0.188-0.182-0.441-0.28-0.702-0.27c-1.407,0.05-2.798,0.074-4.16,0.082   c-1.362-0.008-2.752-0.032-4.16-0.082c-0.253-0.01-0.514,0.088-0.701,0.27c-0.188,0.181-0.294,0.431-0.294,0.691v7.032   c-0.937-0.032-1.859-0.075-2.772-0.124v-7.05c0-0.509-0.398-0.931-0.907-0.96c-2.424-0.138-4.832-0.341-7.155-0.604   c-0.271-0.031-0.543,0.056-0.748,0.238c-0.204,0.182-0.321,0.442-0.321,0.717v6.854c-1.111-0.138-2.201-0.286-3.259-0.45v-7.107   c0-0.471-0.344-0.874-0.81-0.948c-1.897-0.305-3.754-0.657-5.515-1.048c-0.283-0.063-0.582,0.006-0.81,0.188s-0.36,0.459-0.36,0.75   v6.717c-1.029-0.244-2.015-0.502-2.967-0.769v-7.197c0-0.428-0.282-0.803-0.69-0.923c-1.362-0.399-2.663-0.831-3.869-1.282   c-0.295-0.11-0.626-0.068-0.885,0.11c-0.258,0.18-0.413,0.476-0.413,0.791v6.526c-0.963-0.391-1.861-0.793-2.678-1.206v-7.371   c0-0.354-0.194-0.68-0.506-0.847c-0.803-0.432-1.542-0.882-2.201-1.338c-0.294-0.205-0.676-0.228-0.993-0.062   c-0.318,0.166-0.517,0.494-0.517,0.852v5.971c-1.284-1.196-1.968-2.419-1.968-3.616l-0.001-1.818   C4.457,47.209,4.442,36.2,14.352,29.85c0.032-0.021,0.064-0.042,0.096-0.066c1.001-0.736,2.402-1.456,4.204-2.153   c7.061-2.936,17.305-4.363,31.34-4.364c13.969,0.001,24.189,1.422,31.288,4.358c1.801,0.692,3.229,1.424,4.244,2.176   c0.032,0.023,0.064,0.046,0.099,0.067c9.878,6.353,9.865,17.353,9.848,31.278l-0.003,1.744c0,0.046,0.003,0.092,0.006,0.138   C95.448,64.208,94.769,65.411,93.503,66.587z"/>
	<path d="M87.969,37.059c-0.531,0-0.962,0.43-0.962,0.961c0,0.99-0.735,1.997-2.128,2.962l-10.066-8.979   c-0.427-0.583-1.36-1.292-8.33-2.082c-2.849-0.323-8.758-0.865-16.333-0.865c-5.575,0-11.339,0.303-16.234,0.853   c-5.489,0.616-7.235,1.197-7.931,1.641c-0.158,0.088-0.302,0.201-0.43,0.335l-10.302,9.221c-1.512-1.003-2.312-2.054-2.312-3.086   c0-0.531-0.431-0.961-0.962-0.961c-0.53,0-0.961,0.43-0.961,0.961c0,7.218,19.597,10.995,38.956,10.995   c19.359,0,38.957-3.776,38.957-10.995C88.93,37.488,88.499,37.059,87.969,37.059z M74.019,44.917L68.916,35.5H31.031l-5.104,9.421   c-2.886-0.617-5.338-1.334-7.303-2.115l9.365-9.276c1.501-0.597,10.435-1.905,22.161-1.905c11.567,0,20.422,1.273,22.097,1.881   l9.294,9.21C79.54,43.53,77.011,44.277,74.019,44.917z"/>
</g>
</svg>